<?xml version="1.0" encoding="UTF-8"?>
<!DOCTYPE svg PUBLIC "-//W3C//DTD SVG 1.1//EN" "http://www.w3.org/Graphics/SVG/1.1/DTD/svg11.dtd">
<!-- Creator: CorelDRAW X6 -->
<svg xmlns="http://www.w3.org/2000/svg" xml:space="preserve" width="32.1801in" height="5.14914in" version="1.1" style="shape-rendering:geometricPrecision; text-rendering:geometricPrecision; image-rendering:optimizeQuality; fill-rule:evenodd; clip-rule:evenodd"
viewBox="0 0 32180 5149"
 xmlns:xlink="http://www.w3.org/1999/xlink">
 <defs>
  <style type="text/css">
   <![CDATA[
    .fil0 {fill:#02B24D;fill-rule:nonzero}
    .fil4 {fill:#1B0B04;fill-rule:nonzero}
    .fil3 {fill:#3903E2;fill-rule:nonzero}
    .fil1 {fill:#DD9B16;fill-rule:nonzero}
    .fil2 {fill:#E44D51;fill-rule:nonzero}
   ]]>
  </style>
 </defs>
 <g id="__x0023_Layer_x0020_1">
  <metadata id="CorelCorpID_0Corel-Layer"/>
  <g id="_285152120">
   <g>
    <g>
     <path class="fil0" d="M2099 2530l1386 -769c318,-186 502,-641 263,-989 -157,-348 -617,-391 -907,-263l-2455 1452 1713 569z"/>
    </g>
    <g>
     <path class="fil1" d="M3123 4647c279,0 499,-152 625,-352 210,-315 55,-721 -263,-989l-2394 -1346c-371,-175 -793,-84 -967,263 -188,289 -57,721 263,907l2455 1407c66,89 160,110 281,110z"/>
    </g>
    <g>
     <path class="fil2" d="M5584 4640c93,7 245,-10 363,-81l2423 -1428 -1713 -566 -1435 742c-318,268 -420,641 -263,989 167,200 399,352 625,345z"/>
    </g>
    <g>
     <path class="fil3" d="M8008 3219c279,0 487,-129 625,-352 157,-348 55,-697 -263,-907l-2423 -1452c-318,-178 -779,-26 -989,263 -157,348 -55,779 263,989l2452 1370c119,48 213,89 334,89z"/>
    </g>
   </g>
   <g>
    <path class="fil4" d="M11462 3942c-231,-140 -422,-327 -578,-587 -143,-237 -232,-508 -232,-818 0,-285 89,-555 232,-800 156,-235 347,-458 578,-578 267,-129 505,-202 810,-202 200,0 423,32 614,88 217,104 359,216 519,367l-279 244c-108,-131 -233,-200 -368,-266 -164,-75 -321,-91 -495,-91 -206,0 -426,48 -585,135 -217,104 -357,268 -470,461 -90,186 -159,405 -159,640 0,261 69,480 159,683 113,177 268,315 450,419 182,104 390,177 605,177 235,0 389,-44 516,-91 138,-75 251,-167 374,-272 65,-70 136,-176 165,-283 48,-122 65,-246 73,-372l-1101 0 0 -367 1450 0c14,101 30,162 30,243 0,175 -11,372 -82,540 -71,188 -185,344 -281,479 -304,305 -693,458 -1133,458 -305,0 -543,-64 -810,-209z"/>
    <path class="fil4" d="M14235 1018l904 0c314,0 579,65 797,198 263,117 438,307 567,540 122,243 185,475 185,781 0,306 -63,578 -185,823 -129,217 -304,398 -567,540 -218,117 -483,197 -797,197l-904 0 0 -3079zm904 2718l0 0c373,0 630,-128 874,-337 196,-208 315,-475 315,-862 0,-366 -120,-652 -315,-860 -244,-208 -501,-312 -874,-312l-574 0 0 2371 574 0z"/>
    <path class="fil4" d="M17752 3942c-240,-140 -421,-327 -544,-587 -166,-237 -249,-508 -249,-818 0,-285 83,-555 249,-800 123,-235 305,-458 544,-578 270,-129 535,-202 823,-202 225,0 436,32 636,88 202,104 345,216 490,367l-282 244c-76,-131 -200,-200 -351,-266 -147,-75 -328,-91 -504,-91 -201,0 -403,48 -590,135 -187,104 -340,268 -463,461 -123,186 -156,405 -156,640 0,261 33,480 156,683 122,177 276,315 453,419 193,104 402,177 600,177 222,0 393,-44 527,-91 135,-75 261,-167 377,-272 59,-70 119,-176 175,-283 35,-122 64,-246 57,-372l-1116 0 0 -367 1483 0c-26,101 25,162 25,243 0,175 -44,372 -104,540 -60,188 -156,344 -287,479 -307,305 -658,458 -1126,458 -288,0 -554,-64 -823,-209z"/>
   </g>
  </g>
  <g id="_285152264">
   <path class="fil4" d="M24320 2672c0,418 -96,751 -344,999 -279,277 -650,443 -1099,443 -435,0 -802,-150 -1103,-459 -330,-315 -467,-658 -467,-1115 0,-414 136,-800 467,-1101 301,-301 669,-465 1103,-465 220,0 431,53 630,111 198,98 362,208 473,350l-290 267c-77,-102 -185,-189 -334,-252 -149,-63 -330,-94 -479,-94 -344,0 -608,108 -813,355 -227,212 -349,515 -349,830 0,353 122,639 349,867 204,209 468,339 813,339 316,0 552,-91 728,-261 218,-157 309,-387 359,-679l-1087 0 0 -359 1450 0c14,75 -7,144 -7,226z"/>
   <polygon class="fil4" points="26563,1068 26563,1434 25205,1434 25205,2371 26430,2371 26430,2731 25205,2731 25205,3679 26563,3679 26563,4047 24816,4047 24816,1068 "/>
   <polygon class="fil4" points="28753,4047 27081,4047 27081,1068 27477,1068 27477,3679 28753,3679 "/>
   <path class="fil4" d="M29338 4047l-426 0 1128 -2979 435 0 1129 2979 -442 0 -268 -811 -1263 0 -293 811zm913 -2520l0 0 -491 1350 989 0 -483 -1350 -15 0z"/>
  </g>
 </g>
</svg>
