<?xml version="1.0" encoding="utf-8"?>
<!-- Generator: Adobe Illustrator 16.0.0, SVG Export Plug-In . SVG Version: 6.00 Build 0)  -->
<svg version="1.2" baseProfile="tiny" xmlns="http://www.w3.org/2000/svg" xmlns:xlink="http://www.w3.org/1999/xlink" x="0px"
	 y="0px" width="3000px" height="1000px" viewBox="0 0 3000 1000" overflow="auto" xml:space="preserve">
<g id="Layer_2">
	<path id="blu_4_" fill="#676C72" d="M2125.162,407.793l6.221-1.798c2.066-0.618,4.135-1.232,6.236-1.771
		c1.055-0.261,2.077-0.601,3.158-0.798l3.231-0.639l0.405-0.08l0.44-0.027c0.274-0.01,0.528-0.045,0.819-0.034
		c0.564,0.012,1.155,0.008,1.688,0.046c1.094,0.051,2.172,0.135,3.251,0.212c2.155,0.166,4.297,0.32,6.437,0.423
		c1.069,0.047,2.138,0.09,3.203,0.096c1.067,0.033,2.128-0.012,3.188-0.024c1.053-0.072,2.117-0.084,3.154-0.225
		c0.52-0.059,1.043-0.104,1.56-0.173l1.532-0.27c0.518-0.068,0.998-0.236,1.496-0.358c0.495-0.126,0.991-0.251,1.447-0.454
		c0.457-0.195,0.954-0.328,1.378-0.569l1.275-0.707l0.29-0.161l0.304-0.033c0.671-0.075,1.335-0.114,2.01-0.215
		c0.674-0.1,1.346-0.177,2.021-0.305c1.349-0.224,2.696-0.497,4.039-0.792c2.686-0.593,5.355-1.294,7.989-2.094
		c0.663-0.188,1.313-0.411,1.97-0.617c0.656-0.204,1.306-0.427,1.953-0.654c1.299-0.442,2.581-0.926,3.842-1.439
		c0.625-0.264,1.265-0.508,1.87-0.8c0.61-0.284,1.234-0.552,1.812-0.87c0.598-0.299,1.177-0.613,1.714-0.958
		c0.581-0.319,1.025-0.706,1.525-1.057l0.392-0.276l0.346-0.067l9.094-1.763c0.74-0.158,1.524-0.261,2.228-0.464l2.152-0.551
		c0.358-0.09,0.719-0.174,1.065-0.314l1.051-0.377l2.102-0.751l0.604-0.216l0.678,0.203l1.899,0.568
		c0.624,0.199,1.265,0.38,1.941,0.522c1.332,0.308,2.646,0.632,4.017,0.903l4.086,0.856c1.372,0.295,2.74,0.56,4.117,0.902
		c1.374,0.345,2.754,0.606,4.124,1.021l2.058,0.589c0.684,0.213,1.376,0.363,2.051,0.634l2.033,0.744
		c0.676,0.257,1.36,0.477,2.028,0.767l3.961,1.915l-0.979-0.26c1.12-0.047,2.285-0.147,3.482-0.427
		c1.188-0.237,2.391-0.58,3.585-0.955c1.196-0.38,2.39-0.804,3.575-1.268c1.186-0.46,2.368-0.944,3.539-1.467
		c4.7-2.055,9.281-4.477,13.82-6.97c4.529-2.518,8.991-5.18,13.376-7.958c2.188-1.395,4.375-2.793,6.524-4.236
		c1.077-0.718,2.139-1.452,3.189-2.191c1.028-0.734,2.115-1.519,2.955-2.232l0.36-0.307l0.315-0.092
		c2.009-0.586,3.982-1.248,6.019-1.764l3.103-0.661c1.021-0.182,2.029-0.321,3.044-0.484l2.888-0.548l0.359-0.069l0.09-0.017
		l0.045-0.009c-0.049,0.015,0.141-0.039-0.104,0.032l0.023-0.007l0.182-0.057c0.221-0.075,0.536-0.154,0.679-0.225
		c0.108-0.073,0.215-0.11,0.342-0.178c0.132-0.102,0.273-0.181,0.407-0.287c1.068-0.8,1.893-2.908,3.644-4.669
		c0.858-0.884,1.945-1.564,3.037-2.033c0.55-0.252,1.105-0.427,1.663-0.578l0.417-0.12l0.179-0.036l0.023-0.003l0.047-0.006
		l0.095-0.013l0.189-0.025l0.757-0.1c2.59-0.181,4.645,0.428,6.692,1.048c4.053,1.317,7.724,3.198,11.38,4.99
		c1.819,0.891,3.64,1.814,5.426,2.516l0.663,0.25l0.629,0.18l0.157,0.047l0.039,0.012c-0.248-0.037-0.056-0.009-0.104-0.016
		l0.023,0.002l0.095,0.01l0.381,0.037c0.254,0.027,0.521,0.06,0.693,0.026l0.588-0.035c0.213-0.015,0.479-0.055,0.715-0.082
		l1.497-0.193c2.039-0.283,4.19-0.443,6.325-0.307c1.064,0.116,2.133,0.2,3.171,0.465c1.058,0.181,2.063,0.527,3.072,0.862
		l0.755,0.252l0.724,0.322l1.446,0.645c0.965,0.427,1.838,1.015,2.759,1.515c0.464,0.246,0.897,0.537,1.317,0.845l1.279,0.898
		c0.42,0.307,0.864,0.583,1.265,0.913l1.197,0.991c0.781,0.679,1.634,1.282,2.354,2.022l2.229,2.147
		c1.469,1.446,2.791,3.022,4.191,4.527l-0.422-0.256c0.329,0.07,0.639,0.099,0.822,0.038c0.179-0.051,0.345-0.191,0.582-0.503
		c0.231-0.298,0.498-0.732,0.956-1.107c0.456-0.387,1.096-0.581,1.625-0.591l0.205-0.012l0.104,0.006l0.02,0.002l0.039,0.004
		l0.08,0.01c0.109,0.015,0.202,0.02,0.325,0.042c0.296,0.079,0.638,0.178,0.839,0.302c0.48,0.229,0.844,0.531,1.206,0.822
		c0.692,0.596,1.271,1.217,1.875,1.739c0.3,0.268,0.605,0.489,0.912,0.679c0.31,0.173,0.618,0.31,0.925,0.346
		c0.153,0.029,0.307,0.04,0.461,0.015l0.115-0.006c0.013,0,0.055-0.004,0.043,0l0.078-0.015l0.313-0.061
		c0.423-0.078,0.831-0.166,1.228-0.261c0.403-0.087,0.828-0.202,1.281-0.274c0.446-0.09,0.938-0.122,1.429-0.113l0.737,0.087
		c0.237,0.051,0.465,0.127,0.697,0.191c0.469,0.125,0.857,0.354,1.288,0.531l0.113,0.046l0.128,0.152
		c0.711,0.845,1.024,2.178,1.372,2.322c0.058,0.034,0.133,0.056,0.194,0.092l0.024,0.013l0.013,0.006
		c-0.156-0.041-0.03-0.009-0.06-0.017l0.091,0.018l0.181,0.036c0.274,0.074,0.379,0.009,0.574,0.036
		c0.464-0.015,0.964-0.044,1.484-0.046c1.04-0.016,2.144,0.147,3.136,0.552l0.377,0.143l0.094,0.036
		c0.038,0.018-0.021-0.015,0.098,0.044l0.041,0.022l0.161,0.088l0.646,0.355c0.475,0.334,0.948,0.722,1.288,1.138
		c0.357,0.417,0.643,0.853,0.909,1.218c0.134,0.142,0.257,0.353,0.394,0.43l0.194,0.164c0.078,0.028,0.153,0.058,0.228,0.092
		l0.11,0.053l0.027,0.014c-0.13-0.031-0.023-0.006-0.046-0.012l0.022,0.004l0.091,0.016l0.363,0.062
		c0.255,0.053,0.416,0.014,0.628,0.032c0.446,0.004,0.977-0.008,1.506,0.032c1.058,0.089,2.154,0.351,3.084,0.844l0.714,0.349
		l0.649,0.427l0.649,0.429c0.072,0.051,0.066,0.038,0.203,0.142l0.139,0.121l0.278,0.242c0.362,0.277,0.768,0.785,1.106,1.175
		c0.309,0.416,0.628,0.831,0.892,1.26c0.562,0.852,1.042,1.717,1.535,2.573c0.969,1.71,1.94,3.379,3.084,4.908
		c1.138,1.531,2.444,2.914,3.93,4.075c1.483,1.156,3.182,1.988,4.944,2.928c3.477,1.854,6.938,3.709,10.434,5.501
		c3.488,1.798,6.991,3.568,10.534,5.205c1.773,0.802,3.558,1.593,5.35,2.237l1.336,0.432c0.423,0.084,0.872,0.233,1.269,0.27
		l0.732,0.089l0.643,0.021c0.414,0.029,0.907-0.015,1.357-0.02c1.857-0.124,3.738-0.467,5.639-0.881l2.9-0.626
		c0.496-0.102,1.004-0.195,1.549-0.266c0.29-0.025,0.537-0.073,0.883-0.065c0.174,0.005,0.305-0.011,0.512,0.016
		c0.217,0.033,0.436,0.077,0.647,0.13l0.076,0.019l0.078,0.046c0.187,0.11,0.371,0.228,0.549,0.353l0.352,0.286l0.618,0.524
		c0.381,0.319,0.756,0.612,1.117,0.841c0.359,0.218,0.715,0.393,0.991,0.433c0.067,0.008,0.134,0.02,0.2,0.037
		c-0.055,0.003,0.192,0.011-0.11,0.012l0.099-0.011l0.197-0.022c0.269-0.026,0.543-0.056,0.681-0.129l0.557-0.173l0.733-0.25
		l1.542-0.511c0.545-0.146,1.08-0.312,1.637-0.438c0.569-0.1,1.129-0.233,1.708-0.3c0.586-0.04,1.171-0.101,1.76-0.113l1.777,0.114
		c0.086,0.012-0.033-0.015,0.219,0.029l0.098,0.021l0.193,0.042l0.389,0.083l0.775,0.165c0.514,0.104,1.155,0.375,1.725,0.567
		c2.219,0.876,3.994,2.117,5.73,2.856c0.435,0.178,0.862,0.301,1.289,0.461l1.291,0.246l1.607,0.217l1.663,0.298
		c2.136,0.428,4.089,0.87,6.071,1.034c0.493,0.063,0.988,0.083,1.484,0.09c0.496,0.001,0.988,0.059,1.487,0.017l1.492-0.068
		l0.187-0.008l0.094-0.004c0.136-0.012-0.081,0.014-0.022,0.004l0.392-0.061l0.784-0.122c0.474-0.103,0.86-0.235,1.296-0.34
		c0.447-0.133,0.938-0.313,1.404-0.466c0.943-0.347,1.895-0.707,2.838-1.125c3.785-1.625,7.505-3.581,11.222-5.555
		c1.872-0.991,3.688-2.002,5.669-2.992l0.774-0.372l0.505-0.203l0.256-0.098c0.098-0.029-0.036-0.003,0.25-0.077l0.097-0.022
		l0.772-0.179c0.295-0.055,0.656-0.099,0.982-0.142c1.245-0.146,2.254-0.16,3.167-0.292c0.911-0.123,1.695-0.307,2.229-0.66
		l0.217-0.115l0.056-0.027c-0.24,0.183-0.023,0.014-0.058,0.038l0.15-0.13l0.3-0.259l0.185-0.209
		c0.132-0.154,0.223-0.228,0.397-0.438l0.484-0.565c1.296-1.546,2.571-3.236,3.848-4.908l3.874-5.061
		c0.659-0.844,1.334-1.687,2.033-2.527c0.732-0.848,1.393-1.666,2.356-2.549c0.131-0.115,0.196-0.203,0.383-0.339l0.522-0.378
		l0.268-0.18c0.062-0.044,0.116-0.068,0.176-0.103l0.345-0.194l1.364-0.785c0.952-0.541,1.973-1.098,3.148-1.545
		c1.16-0.444,2.519-0.799,4.035-0.698c0.373,0.007,0.754,0.09,1.129,0.157c0.189,0.034,0.371,0.102,0.557,0.155l0.275,0.087
		l0.137,0.045l0.279,0.125c0.495,0.258,0.858,0.342,1.679,0.951l0.519,0.392l0.374,0.369l0.369,0.374l0.272,0.31l0.264,0.298
		l0.176,0.178c0.127,0.157,0.202,0.166,0.267,0.222c0.049,0.08,0.17,0.068,0.25,0.113c0.052,0.014,0.066,0.053,0.146,0.06
		l0.237,0.026c0.148,0.013,0.331,0.066,0.448,0.068l0.793,0.03c0.424,0.014,0.694-0.081,0.496,0.003
		c-0.197,0.081-0.366,0.288-0.342,0.266l0.373-0.626c0.078-0.135,0.21-0.303,0.314-0.452l0.169-0.229l0.085-0.113
		c-0.127,0.16-0.002-0.001-0.015,0.013l0.234-0.32l0.111-0.155l0.056-0.102l0.147-0.245l0.298-0.467
		c0.196-0.252,0.416-0.495,0.646-0.716c0.318-0.244,0.694-0.46,1.068-0.617c0.312-0.091,0.627-0.15,0.946-0.191l0.238-0.026
		l0.162,0.005l0.317,0.016l0.633,0.051l0.478,0.094l0.478,0.097l0.119,0.025c0.073,0.018,0.006-0.005,0.194,0.047l0.19,0.054
		c0.145,0.043,0.217,0.055,0.42,0.125l0.562,0.202c0.66,0.263,1.342,0.648,1.861,1.025l0.53,0.376
		c0.025,0.017-0.033-0.029-0.185-0.077c-0.165-0.06-0.437-0.082-0.625-0.053c-0.078,0.001-0.192,0.043-0.229,0.052
		c-0.037,0.007-0.073,0.021-0.104,0.041c-0.018,0.009-0.002-0.006-0.004-0.004l0.006-0.001c-0.291,0.213-0.036,0.024-0.081,0.056
		l0.156-0.123c0.049-0.036-0.005-0.004-0.025,0.011c-0.025,0.018-0.05,0.038-0.071,0.059c-0.105,0.125-0.087,0.091-0.105,0.13
		c-0.018,0.032,0.023-0.052,0.117-0.327c0.102-0.262,0.242-0.776,0.716-1.384c0.468-0.601,1.146-1.007,1.692-1.2
		c0.258-0.088,0.504-0.15,0.744-0.202l0.634-0.088l0.552-0.025l0.139-0.004c0.781,0.062,0.272,0.026,0.473,0.044l0.195,0.032
		c0.165,0.037,0.165,0.003,0.537,0.125c0.296,0.095,0.592,0.212,0.874,0.346c0.903,0.487,1.331,0.886,1.841,1.336
		c0.46,0.435,0.886,0.871,1.261,1.298c0.771,0.857,1.449,1.705,2.112,2.514c0.663,0.808,1.311,1.602,1.951,2.268
		c0.16,0.18,0.318,0.331,0.473,0.474c0.156,0.152,0.312,0.303,0.452,0.401c0.142,0.113,0.293,0.247,0.391,0.285
		c0.054,0.032,0.106,0.066,0.157,0.103c0.041,0.021,0.042-0.002,0.059,0.011c0.006,0.003,0.012,0.008,0.017,0.016
		c0.046,0.014-0.092-0.016,0.105,0.037l0.095,0.027l0.383,0.106l0.764,0.213l1.527,0.426c1.032,0.316,2.082,0.676,3.123,1.014
		c2.111,0.681,4.035,1.4,6.062,2.1l5.977,2.117l0.187,0.066l0.32,0.123l0.366,0.152l0.731,0.306c0.215,0.073,0.561,0.27,0.865,0.437
		l0.922,0.528c1.089,0.767,2.155,1.659,2.925,2.755c0.792,1.06,1.364,2.201,1.817,3.139c0.449,0.957,0.854,1.596,1.076,1.722
		c0.195,0.135,0.561,0.3,1.378,0.244l0.133,0.002c0.074-0.003-0.029,0.007,0.021,0.001l0.099-0.009l0.395-0.039
		c0.245-0.028,0.567-0.046,0.749-0.083c0.414-0.055,0.826-0.132,1.236-0.228c0.372-0.107,0.732-0.213,0.971-0.346
		c0.283-0.146,0.352-0.206,0.979-0.684c0.361-0.26,0.934-0.595,1.544-0.738c0.309-0.088,0.548-0.1,0.828-0.135
		c0.255-0.02,0.454-0.009,0.683-0.007c0.234,0.002,0.383,0.032,0.578,0.05l0.367,0.041l0.789,0.083
		c0.486,0.012,0.672,0.034,1.15-0.01c0.412-0.019,0.846-0.086,1.326-0.162c0.477-0.08,1.015-0.186,1.623-0.273
		c0.322-0.035,0.606-0.095,0.963-0.105l0.514-0.025l0.258-0.01c0.495,0.018,0.193,0.01,0.33,0.017l0.099,0.009l0.197,0.018
		c0.176,0.025,0.4,0.072,0.596,0.126c0.436,0.111,0.714,0.267,1.012,0.435c0.292,0.169,0.525,0.378,0.756,0.585
		c0.177,0.188,0.398,0.423,0.512,0.595c0.539,0.76,0.742,1.272,0.949,1.612c0.194,0.343,0.323,0.491,0.418,0.57
		c0.137,0.09,0.06,0.081,0.717,0.323c0.985,0.366,1.979,0.743,2.999,1.154l1.517,0.604l1.519,0.729
		c1.014,0.484,2.035,0.952,2.977,1.587l1.439,0.893l0.72,0.448l0.358,0.224l0.09,0.056c-0.064-0.052,0.19,0.133,0.191,0.137
		l0.154,0.124c0.829,0.677,1.637,1.252,2.516,2.139c0.424,0.409,0.873,0.823,1.271,1.233l1.124,1.222
		c1.491,1.632,2.845,3.326,4.167,5.013l1.938,2.502c0.326,0.429,0.614,0.754,0.921,1.139c0.103,0.135,0.336,0.373,0.498,0.555
		l0.521,0.551c2.844,2.981,5.855,5.966,8.899,8.811c3.049,2.846,6.192,5.632,9.461,7.979c0.814,0.547,1.646,1.112,2.429,1.494
		c0.426,0.265,0.711,0.287,1.045,0.443l0.061,0.025c0.021,0.011-0.007,0.005,0.053,0.017l0.194,0.041l0.388,0.083l0.775,0.165
		l6.206,1.319l24.823,5.275l12.406,2.591c4.133,0.857,8.262,1.678,12.396,2.374c2.065,0.313,4.132,0.632,6.185,0.814
		c1.039,0.146,2.027,0.116,3.04,0.169l0.88,0.035l0.79,0.07l0.79,0.07c0.271,0.038,0.557,0.096,0.834,0.144
		c2.295,0.383,4.291,0.892,6.381,1.399c2.062,0.522,4.118,1.063,6.16,1.636c8.183,2.245,16.26,4.784,24.324,7.364
		c8.053,2.624,16.113,5.17,24.027,8.27l-0.178,0.429c-3.965-1.396-8.05-2.544-12.093-3.762c-4.056-1.195-8.116-2.369-12.187-3.508
		c-8.139-2.284-16.305-4.483-24.487-6.53c-2.046-0.515-4.095-0.995-6.145-1.456c-2.03-0.442-4.156-0.897-6.042-1.171
		c-0.244-0.038-0.478-0.086-0.729-0.115l-0.792-0.048l-0.791-0.049l-0.099-0.006c-0.058-0.003,0.155,0,0.016-0.001l-0.208-0.001
		l-0.414-0.002c-1.1-0.022-2.232,0.028-3.295-0.092c-2.168-0.134-4.29-0.404-6.415-0.668c-4.227-0.595-8.417-1.312-12.588-2.06
		l-6.239-1.132l-6.246-1.215l-24.906-4.865l-6.227-1.216l-0.778-0.152l-0.39-0.076l-0.194-0.038c-0.005,0-0.099-0.02-0.139-0.034
		l-0.126-0.039c-0.655-0.214-1.415-0.432-1.898-0.721c-1.126-0.535-2.054-1.154-3.004-1.769c-3.647-2.531-6.886-5.328-10.068-8.195
		c-3.179-2.884-6.24-5.793-9.271-8.899l-0.571-0.598c-0.192-0.212-0.335-0.346-0.566-0.622c-0.36-0.436-0.77-0.906-1.086-1.317
		l-1.966-2.499c-1.299-1.632-2.602-3.234-3.976-4.714l-1.031-1.105c-0.342-0.345-0.676-0.643-1.012-0.969
		c-0.596-0.637-1.512-1.299-2.326-1.951l-0.156-0.123c-0.049-0.04,0.149,0.111,0.028,0.025l-0.079-0.048l-0.316-0.191l-0.632-0.383
		l-1.262-0.77c-0.815-0.553-1.726-0.955-2.624-1.375l-1.344-0.638l-1.435-0.557c-0.945-0.372-1.931-0.738-2.931-1.101
		c-0.338-0.108-1.412-0.516-2.09-1.111c-0.727-0.592-1.224-1.321-1.553-1.892c-0.325-0.573-0.56-1.031-0.645-1.128
		c-0.029-0.052-0.009,0.007-0.002-0.008c0.025,0.043,0.07,0.059,0.129,0.104c0.064,0.044,0.115,0.061,0.289,0.12
		c0.067,0.019,0.166,0.024,0.213,0.018l-0.197-0.016l-0.099-0.008c0.07,0.003-0.297-0.019,0.132,0.005l-0.139,0.01l-0.277,0.016
		c-0.174-0.002-0.409,0.052-0.611,0.073c-0.438,0.065-0.938,0.167-1.503,0.267c-0.563,0.094-1.176,0.195-1.819,0.232
		c-0.574,0.066-1.451,0.029-2.018-0.007l-1.421-0.153c-0.034,0.005-0.101-0.005-0.108-0.002c0.02,0.009-0.011-0.006,0.047-0.009
		c0.091-0.026,0.199-0.086,0.127-0.048c-0.211,0.163-0.972,0.772-1.644,1.088c-0.701,0.361-1.362,0.553-2.007,0.731
		c-0.619,0.147-1.246,0.263-1.882,0.343c-0.339,0.054-0.547,0.059-0.827,0.09l-0.395,0.038l-0.099,0.01
		c-0.016,0.002-0.185,0.015-0.178,0.011l-0.264,0.004h-1.056c-0.369-0.023-0.784-0.107-1.172-0.175
		c-0.794-0.173-1.68-0.545-2.399-1.116c-0.394-0.264-0.634-0.593-0.94-0.905c-0.28-0.317-0.45-0.614-0.672-0.929
		c-0.189-0.3-0.322-0.568-0.484-0.856l-0.383-0.766c-0.463-0.964-0.86-1.716-1.333-2.353c-0.441-0.654-1.046-1.111-1.664-1.577
		c-0.154-0.082-0.306-0.168-0.454-0.258c-0.157-0.09-0.257-0.185-0.543-0.29l-0.731-0.306l-0.366-0.153
		c0.03,0.011-0.195-0.079,0.044,0.015l-0.094-0.033l-0.187-0.067l-5.981-2.126c-1.969-0.687-4.014-1.434-5.919-2.075
		c-0.969-0.324-1.914-0.664-2.9-0.978l-1.523-0.44l-0.763-0.22l-0.381-0.11l-0.095-0.028c0.135,0.031-0.065-0.023-0.081-0.031
		l-0.355-0.122c-0.228-0.086-0.485-0.179-0.677-0.28l-0.52-0.312c-0.369-0.215-0.617-0.432-0.887-0.65
		c-0.283-0.221-0.506-0.438-0.729-0.656c-0.229-0.219-0.45-0.438-0.641-0.654c-0.814-0.869-1.494-1.726-2.166-2.557
		c-0.669-0.833-1.307-1.642-1.944-2.363c-0.318-0.371-0.634-0.692-0.937-0.987c-0.268-0.265-0.662-0.543-0.688-0.562
		c0.043,0.023,0.099,0.029,0.154,0.013l0.042-0.016c0.019-0.007-0.051-0.012-0.072-0.018l-0.195-0.034l-0.195-0.034
		c0.135,0.008-0.438-0.042,0.276,0.013l-0.06,0.003l-0.24,0.006c-0.051,0.01-0.101,0.016-0.152,0.018
		c-0.017,0.008-0.028,0.01-0.021,0.001c0.051-0.008,0.268-0.127,0.402-0.313c0.136-0.195,0.101-0.198,0.023,0.034
		c-0.084,0.223-0.215,0.642-0.5,1.132c-0.168,0.255-0.281,0.456-0.58,0.762l-0.207,0.203c-0.066,0.062-0.162,0.146-0.168,0.148
		l-0.157,0.121c-0.099,0.07,0.109-0.072-0.24,0.173l-0.165,0.1c-0.116,0.067-0.212,0.126-0.348,0.193
		c-0.154,0.07-0.312,0.135-0.471,0.192c-0.159,0.059-0.409,0.11-0.614,0.143c-0.45,0.068-0.989,0.02-1.407-0.117
		c-0.402-0.129-0.697-0.297-0.896-0.422c-0.395-0.254-0.594-0.421-0.764-0.54c-0.336-0.245-0.584-0.379-0.902-0.517l-0.182-0.07
		c-0.045-0.024-0.231-0.071-0.34-0.105l-0.19-0.055c0.125,0.032-0.008,0,0,0.003l-0.074-0.015l-0.299-0.063l-0.299-0.067
		c-0.054,0.001-0.105-0.001-0.158-0.008l-0.078-0.013l-0.035-0.008l0.042,0.007c0.06,0.004,0.112-0.018,0.165-0.058
		c0.146-0.025,0.29-0.113,0.382-0.223c0.055-0.023,0.099-0.068,0.119-0.123l-0.397,0.631c-0.106,0.168-0.205,0.313-0.275,0.401
		l-0.236,0.318l-0.164,0.219l-0.066,0.091c-0.047,0.068-0.09,0.101-0.143,0.195l-0.45,0.729c-0.031,0.06-0.146,0.206-0.256,0.333
		c-0.108,0.127-0.224,0.251-0.342,0.369c-0.232,0.235-0.589,0.435-0.908,0.605c-1.177,0.487-1.994,0.402-2.619,0.417l-0.792-0.038
		c-0.412-0.018-0.746-0.095-1.121-0.15l-0.546-0.1c-0.181-0.034-0.4-0.136-0.597-0.208c-0.401-0.169-0.812-0.306-1.162-0.588
		c-0.363-0.254-0.734-0.535-0.948-0.787l-0.375-0.394l-0.259-0.299l-0.248-0.288l-0.189-0.189l-0.184-0.195
		c-0.045-0.027-0.083-0.05-0.119-0.081c0.015-0.092-0.623-0.388-1.07-0.607c0.055,0.022-0.248-0.113,0.101,0.04l-0.052-0.014
		l-0.104-0.031c-0.068-0.018-0.133-0.055-0.205-0.064c-0.146-0.017-0.28-0.067-0.438-0.062c-0.603-0.056-1.352,0.088-2.16,0.395
		c-0.808,0.295-1.66,0.736-2.548,1.232l-1.394,0.785l-0.347,0.191c-0.055,0.032-0.123,0.063-0.167,0.097l-0.055,0.051
		c-0.038,0.032-0.077,0.06-0.121,0.085c-0.035,0.01-0.142,0.128-0.209,0.187c-0.607,0.535-1.306,1.348-1.958,2.096
		c-0.659,0.779-1.314,1.582-1.965,2.398l-3.884,4.979c-1.307,1.677-2.593,3.355-4.028,5.038l-0.555,0.634
		c-0.163,0.196-0.457,0.487-0.686,0.721l-0.365,0.361l-0.303,0.256l-0.15,0.128c-0.086,0.066,0.083-0.058-0.21,0.165l-0.118,0.069
		l-0.476,0.271c-0.638,0.399-1.29,0.591-1.944,0.801c-0.623,0.14-1.285,0.292-1.855,0.333c-1.186,0.142-2.298,0.149-3.154,0.239
		c-0.197,0.025-0.364,0.025-0.59,0.059l-0.775,0.167l-0.098,0.021c0.222-0.061,0.029-0.003,0.064-0.01l-0.113,0.046l-0.233,0.087
		l-0.66,0.305c-1.817,0.871-3.716,1.883-5.597,2.842c-3.785,1.931-7.591,3.86-11.607,5.51c-0.996,0.422-2.031,0.798-3.077,1.162
		c-0.54,0.169-1.047,0.346-1.615,0.506c-0.591,0.143-1.221,0.312-1.782,0.416l-0.786,0.109l-0.393,0.055
		c-0.007,0.003-0.289,0.03-0.22,0.02l-0.104,0.003l-0.21,0.006l-1.677,0.049c-0.558,0.034-1.122-0.033-1.683-0.046
		c-0.562-0.019-1.123-0.051-1.679-0.13c-2.235-0.218-4.411-0.756-6.407-1.213l-1.451-0.3l-1.53-0.246
		c-0.606-0.125-1.223-0.237-1.815-0.393c-0.562-0.212-1.145-0.408-1.682-0.646c-2.124-0.996-3.829-2.239-5.542-2.946l-0.606-0.24
		c-0.205-0.08-0.382-0.176-0.663-0.227l-0.771-0.185l-0.386-0.092l-0.192-0.046l-0.097-0.023c0.187,0.037,0.002,0.006,0.021,0.013
		l-1.385-0.124c-0.467,0-0.938,0.043-1.406,0.057c-0.472,0.041-0.946,0.146-1.421,0.213c-0.477,0.096-0.956,0.233-1.436,0.347
		l-1.481,0.451l-0.773,0.242c-0.263,0.082-0.65,0.174-0.973,0.25c-0.366,0.097-0.62,0.111-0.878,0.132l-0.197,0.018l-0.099,0.009
		c-0.369,0.011-0.186-0.009-0.306-0.012l-0.581-0.102c-0.762-0.165-1.354-0.506-1.887-0.846c-0.521-0.351-0.969-0.726-1.39-1.096
		l-0.579-0.517l-0.258-0.222c-0.041-0.022-0.076-0.051-0.109-0.088l0.153,0.065c-0.029,0.007-0.053,0.005-0.077-0.009
		c-0.034-0.012-0.152-0.002-0.224-0.008c-0.146-0.017-0.388,0.02-0.587,0.03c-0.432,0.045-0.894,0.117-1.363,0.202l-2.877,0.557
		c-1.949,0.38-3.954,0.71-6.025,0.803c-0.533-0.003-1.023,0.033-1.591-0.012l-0.83-0.054l-0.729-0.105
		c-0.582-0.074-1.07-0.248-1.606-0.374l-1.46-0.506c-1.895-0.728-3.69-1.573-5.482-2.428c-7.117-3.474-13.938-7.413-20.861-11.123
		c-0.866-0.481-1.725-0.899-2.604-1.426c-0.436-0.268-0.892-0.504-1.31-0.8l-1.248-0.897c-1.606-1.275-3.008-2.788-4.202-4.421
		c-1.2-1.631-2.195-3.379-3.151-5.096c-0.48-0.851-0.95-1.71-1.466-2.503c-0.247-0.412-0.528-0.777-0.801-1.153
		c-0.137-0.186-0.28-0.324-0.417-0.491l-0.208-0.242l-0.276-0.244c-1.402-1.147-3.069-2.125-4.84-2.234
		c-0.451-0.038-0.905-0.031-1.441-0.04c-0.277-0.018-0.614-0.009-0.842-0.061l-0.362-0.064l-0.091-0.016l-0.114-0.024l-0.057-0.023
		l-0.227-0.097l-0.447-0.207c-0.13-0.094-0.252-0.2-0.376-0.303c-0.272-0.205-0.399-0.436-0.595-0.657
		c-0.308-0.43-0.562-0.823-0.843-1.152c-0.285-0.349-0.582-0.577-0.895-0.83l-0.644-0.36l-0.16-0.09l-0.04-0.022
		c0.09,0.047,0.002,0.005,0.012,0.011l-0.078-0.029l-0.314-0.116c-0.832-0.334-1.713-0.463-2.637-0.446
		c-0.462,0.004-0.944,0.035-1.462,0.054c-0.294-0.011-0.689-0.001-0.894-0.062l-0.181-0.034l-0.091-0.018l-0.104-0.027l-0.029-0.012
		l-0.06-0.026c-0.158-0.072-0.316-0.134-0.468-0.228c-0.312-0.212-0.562-0.498-0.72-0.776c-0.156-0.274-0.257-0.511-0.357-0.732
		c-0.184-0.434-0.403-0.775-0.652-1.121l0.241,0.198c-0.358-0.138-0.714-0.348-1.07-0.435c-0.178-0.046-0.355-0.108-0.532-0.146
		l-0.531-0.06c-0.358,0-0.719,0.018-1.107,0.099c-0.387,0.063-0.785,0.172-1.212,0.267c-0.431,0.106-0.854,0.199-1.267,0.277
		l-0.313,0.062l-0.078,0.016l-0.116,0.013l-0.202,0.017c-0.271,0.036-0.54,0.023-0.809-0.022c-0.54-0.07-1.024-0.284-1.454-0.525
		c-0.42-0.252-0.803-0.535-1.14-0.832c-0.686-0.588-1.273-1.212-1.876-1.721c-0.301-0.238-0.603-0.482-0.897-0.61
		c-0.166-0.097-0.247-0.086-0.353-0.147c-0.084-0.017-0.205-0.023-0.307-0.035l-0.079-0.008l-0.039-0.004l-0.021-0.002l-0.01-0.001
		c0.035,0.002-0.086-0.004,0.078,0.004l-0.004,0l-0.113,0.012c-0.316,0.017-0.534,0.094-0.73,0.262
		c-0.205,0.168-0.402,0.464-0.677,0.845c-0.262,0.366-0.711,0.879-1.358,1.082c-0.636,0.2-1.199,0.11-1.697,0.014l-0.215-0.042
		l-0.207-0.215c-1.398-1.452-2.722-2.981-4.177-4.368l-2.204-2.056c-0.713-0.711-1.543-1.274-2.309-1.919l-1.169-0.938
		c-0.39-0.314-0.822-0.562-1.231-0.845l-1.242-0.825c-0.409-0.284-0.827-0.55-1.271-0.769c-0.88-0.446-1.719-0.984-2.628-1.355
		l-1.358-0.563l-0.678-0.283l-0.7-0.211c-0.933-0.281-1.86-0.578-2.821-0.712c-0.946-0.219-1.914-0.264-2.875-0.347
		c-1.936-0.068-3.858,0.118-5.844,0.447l-1.525,0.238c-0.27,0.037-0.506,0.082-0.801,0.111l-0.935,0.064
		c-0.337,0.031-0.577,0.003-0.829-0.015l-0.381-0.027l-0.096-0.007l-0.023-0.002l-0.151-0.021l-0.053-0.013l-0.212-0.053
		l-0.846-0.219l-0.772-0.267c-2.025-0.736-3.862-1.618-5.723-2.466c-3.693-1.694-7.356-3.438-11.091-4.541
		c-1.83-0.543-3.815-0.931-5.305-0.792l-0.754,0.119l-0.188,0.03l-0.094,0.015l-0.048,0.008l-0.023,0.003
		c-0.041,0.008,0.275-0.055,0.132-0.025l-0.312,0.102c-0.424,0.125-0.836,0.265-1.208,0.453c-0.761,0.355-1.427,0.79-1.973,1.387
		c-0.561,0.587-1.033,1.314-1.567,2.185c-0.536,0.855-1.163,1.907-2.196,2.81c-0.257,0.219-0.547,0.414-0.824,0.614
		c-0.311,0.19-0.671,0.361-1.014,0.523c-0.32,0.139-0.504,0.18-0.762,0.274l-0.182,0.062l-0.172,0.05l-0.049,0.011l-0.097,0.021
		l-0.388,0.086c-1.03,0.223-2.083,0.468-3.098,0.67c-0.991,0.185-1.998,0.351-2.976,0.551l-2.858,0.669
		c-1.9,0.511-3.785,1.175-5.678,1.751l0.676-0.398c-1.14,0.996-2.175,1.745-3.26,2.549c-1.077,0.78-2.155,1.547-3.243,2.295
		c-2.174,1.5-4.363,2.964-6.588,4.375c-4.44,2.833-8.956,5.544-13.56,8.121c-2.303,1.288-4.633,2.535-6.998,3.721
		c-2.362,1.192-4.764,2.323-7.212,3.378c-1.22,0.534-2.461,1.034-3.715,1.511c-1.253,0.479-2.527,0.924-3.825,1.328
		c-1.302,0.398-2.621,0.767-3.997,1.034c-1.355,0.303-2.805,0.444-4.296,0.482l-0.429,0.011l-0.551-0.271l-3.553-1.744
		c-0.606-0.269-1.251-0.478-1.875-0.72l-1.886-0.706c-0.617-0.257-1.291-0.406-1.936-0.612l-1.953-0.584
		c-1.291-0.413-2.65-0.69-3.973-1.042c-1.322-0.348-2.686-0.633-4.033-0.943l-4.08-0.915c-1.359-0.289-2.746-0.648-4.123-0.989
		c-0.687-0.154-1.383-0.36-2.084-0.592l-2.094-0.664l1.282-0.014l-2.277,0.781l-1.139,0.389c-0.375,0.143-0.769,0.231-1.161,0.325
		l-2.351,0.567c-0.789,0.21-1.545,0.296-2.319,0.45c-3.098,0.561-6.111,1.039-9.163,1.557l0.737-0.342
		c-0.642,0.448-1.284,0.944-1.937,1.284c-0.648,0.391-1.304,0.725-1.962,1.035c-0.653,0.336-1.318,0.604-1.979,0.891
		c-0.659,0.297-1.329,0.535-1.995,0.796c-1.335,0.505-2.676,0.974-4.027,1.397c-0.674,0.218-1.35,0.432-2.029,0.625
		c-0.679,0.195-1.354,0.407-2.037,0.583c-2.722,0.754-5.468,1.403-8.242,1.945c-1.388,0.27-2.781,0.516-4.189,0.715
		c-0.698,0.115-1.414,0.181-2.122,0.267c-0.707,0.088-1.438,0.116-2.154,0.176l0.594-0.194l-1.575,0.828
		c-0.525,0.274-1.084,0.416-1.625,0.627c-0.541,0.218-1.096,0.346-1.648,0.474c-0.554,0.122-1.104,0.292-1.66,0.353l-1.662,0.25
		c-0.555,0.061-1.107,0.096-1.661,0.144c-1.108,0.108-2.208,0.077-3.31,0.109c-1.096-0.029-2.195-0.026-3.284-0.101
		c-1.092-0.048-2.178-0.134-3.262-0.224c-2.166-0.188-4.323-0.427-6.464-0.675c-1.07-0.118-2.14-0.243-3.199-0.333
		c-0.543-0.059-1.03-0.071-1.544-0.106c-0.249-0.023-0.534,0.003-0.799,0.002l-0.367,0.005l-0.392,0.062l-3.143,0.499
		c-1.05,0.148-2.096,0.45-3.145,0.667c-2.097,0.463-4.199,0.962-6.297,1.476l-6.305,1.48L2125.162,407.793z"/>
</g>
<g id="Layer_3">
	<g>
		<g>
			<path fill="#676C72" d="M923.229,760.932c-17.464-10.062-31.333-23.932-41.604-41.604
				c-10.275-17.668-15.408-37.184-15.408-58.553c0-21.365,5.133-40.883,15.408-58.555c10.271-17.666,24.14-31.533,41.604-41.603
				c17.46-10.063,36.567-15.101,57.321-15.101c16.227,0,31.481,2.88,45.763,8.629c14.278,5.755,26.041,13.867,35.287,24.346
				l-18.799,18.798c-6.987-8.629-15.924-15.254-26.812-19.877c-10.892-4.623-22.603-6.933-35.132-6.933
				c-15.616,0-30.153,3.751-43.607,11.248c-13.459,7.502-24.244,18.08-32.357,31.742c-8.119,13.664-12.173,29.431-12.173,47.305
				c0,17.873,4.054,33.643,12.173,47.305c8.113,13.664,18.953,24.244,32.512,31.742c13.561,7.502,28.044,11.248,43.453,11.248
				c14.792,0,27.167-2.312,37.135-6.934c9.963-4.623,18.538-10.734,25.733-18.338c5.339-5.748,9.654-12.682,12.943-20.801
				c3.283-8.113,5.34-17.104,6.162-26.965h-81.666v-24.346h106.013c1.025,5.754,1.541,11.094,1.541,16.023
				c0,13.561-2.157,26.764-6.473,39.602c-4.313,12.842-11.199,24.09-20.646,33.744c-20.34,21.986-47.358,32.977-81.05,32.977
				C959.796,776.033,940.688,771,923.229,760.932"/>
			<path fill="#676C72" d="M1121.381,550.448h66.566c22.598,0,42.321,4.675,59.169,14.022c16.844,9.352,29.787,22.343,38.83,38.983
				c9.038,16.642,13.56,35.748,13.56,57.321c0,21.572-4.521,40.678-13.56,57.32c-9.043,16.641-21.986,29.637-38.83,38.984
				c-16.848,9.35-36.571,14.021-59.169,14.021h-66.566V550.448z M1187.947,746.139c26.089,0,46.79-7.496,62.097-22.496
				c15.302-14.994,22.959-35.951,22.959-62.867c0-26.912-7.657-47.868-22.959-62.868c-15.307-14.995-36.008-22.497-62.097-22.497
				h-40.679v170.729H1187.947z"/>
			<path fill="#676C72" d="M1378.087,760.932c-17.465-10.062-31.332-23.932-41.604-41.604
				c-10.274-17.668-15.407-37.184-15.407-58.553c0-21.365,5.133-40.883,15.407-58.555c10.272-17.666,24.14-31.533,41.604-41.603
				c17.46-10.063,36.567-15.101,57.32-15.101c16.228,0,31.482,2.88,45.765,8.629c14.276,5.755,26.04,13.867,35.285,24.346
				l-18.798,18.798c-6.987-8.629-15.925-15.254-26.812-19.877c-10.892-4.623-22.603-6.933-35.132-6.933
				c-15.616,0-30.153,3.751-43.606,11.248c-13.459,7.502-24.245,18.08-32.358,31.742c-8.119,13.664-12.173,29.431-12.173,47.305
				c0,17.873,4.054,33.643,12.173,47.305c8.113,13.664,18.952,24.244,32.512,31.742c13.561,7.502,28.044,11.248,43.453,11.248
				c14.792,0,27.167-2.312,37.135-6.934c9.963-4.623,18.539-10.734,25.732-18.338c5.341-5.748,9.655-12.682,12.942-20.801
				c3.285-8.113,5.342-17.104,6.166-26.965h-81.668v-24.346h106.013c1.025,5.754,1.541,11.094,1.541,16.023
				c0,13.561-2.157,26.764-6.472,39.602c-4.314,12.842-11.2,24.09-20.648,33.744c-20.339,21.986-47.357,32.977-81.05,32.977
				C1414.654,776.033,1395.547,771,1378.087,760.932"/>
		</g>
		<g>
			<path fill="#EA4335" d="M248.243,661.123l101.563-58.639c23.902-13.798,32.091-44.363,18.291-68.263
				c-13.8-23.901-44.36-32.093-68.264-18.291L124.337,617.254L248.243,661.123z"/>
			<path fill="#4285F4" d="M324.772,811.834c17.272,0,34.068-8.965,43.325-24.996c13.8-23.9,5.611-54.465-18.291-68.264
				l-175.496-101.32c-23.904-13.809-54.464-5.609-68.264,18.291c-13.8,23.904-5.611,54.465,18.291,68.264l175.496,101.32
				C307.703,809.674,316.296,811.834,324.772,811.834"/>
			<path fill="#FBBC04" d="M499.346,811.834c8.478,0,17.068-2.16,24.939-6.705l175.494-101.32l-122.33-44.779l-103.137,59.545
				c-23.902,13.799-32.091,44.363-18.291,68.264C465.277,802.869,482.075,811.834,499.346,811.834"/>
			<path fill="#0F9D58" d="M674.746,710.514c17.272,0,34.068-8.961,43.325-24.996c13.8-23.9,5.611-54.463-18.292-68.264
				L524.285,515.93c-23.902-13.799-54.462-5.611-68.264,18.291c-13.8,23.9-5.61,54.463,18.291,68.265l175.495,101.323
				C657.676,708.35,666.269,710.514,674.746,710.514"/>
		</g>
	</g>
</g>
<g id="Layer_4">
	<text transform="matrix(1 0 0 1 1706.4443 771.3018)" fill="#676C72" font-family="'ProductSans-Regular'" font-size="315">P</text>
	<text transform="matrix(1 0 0 1 1873.0811 771.3018)" fill="#676C72" font-family="'ProductSans-Regular'" font-size="315">e</text>
	<text transform="matrix(1 0 0 1 2043.4922 771.3018)" fill="#676C72" font-family="'ProductSans-Regular'" font-size="315">s</text>
	<text transform="matrix(1 0 0 1 2188.3838 771.3018)" fill="#676C72" font-family="'ProductSans-Regular'" font-size="315">c</text>
	<text transform="matrix(1 0 0 1 2351.2383 771.3018)" fill="#676C72" font-family="'ProductSans-Regular'" font-size="315">a</text>
	<text transform="matrix(1 0 0 1 2511.8867 771.3018)" fill="#676C72" font-family="'ProductSans-Regular'" font-size="315">r</text>
	<text transform="matrix(1 0 0 1 2619.9316 771.3018)" fill="#676C72" font-family="'ProductSans-Regular'" font-size="315">a</text>
</g>
<g id="Layer_5">
	<g>
		<path fill="#0F9D58" d="M2756.508,545.627c0,0-0.021-0.32-0.061-0.942c-0.047-0.618-0.063-1.56-0.26-2.712
			c-0.306-2.319-1.042-5.772-2.868-9.788c-1.789-4.028-4.733-8.574-8.87-13.133c-4.147-4.55-9.471-9.106-15.766-13.385
			c-3.133-2.159-6.516-4.241-10.098-6.257c-3.574-2.028-7.352-3.986-11.307-5.855c-7.898-3.757-16.451-7.277-25.473-10.447
			c-9.008-3.205-18.486-6.048-28.179-8.7c-9.71-2.601-19.653-4.958-29.669-6.986c-10.023-1.983-20.091-3.764-30.057-5.156
			c-9.964-1.402-19.787-2.623-29.299-3.767c-9.506-1.195-18.711-2.236-27.443-3.266c-4.369-0.5-8.622-0.961-12.742-1.359
			c-4.115-0.466-8.098-0.859-11.922-1.239c-7.661-0.726-14.684-1.392-20.908-1.982c-6.241-0.566-11.682-1.059-16.162-1.465
			c-4.49-0.414-8.02-0.74-10.425-0.961c-2.409-0.245-3.693-0.375-3.693-0.375v-0.945c0,0,1.287-0.12,3.7-0.344
			c2.414-0.225,5.957-0.494,10.471-0.764c2.258-0.116,4.758-0.245,7.479-0.385c2.724-0.088,5.669-0.184,8.816-0.285
			c3.149-0.082,6.5-0.111,10.033-0.12c3.534-0.025,7.251-0.015,11.127,0.075c3.876,0.09,7.916,0.179,12.097,0.337
			c4.178,0.185,8.494,0.427,12.933,0.702c8.88,0.522,18.223,1.412,27.857,2.602c9.629,1.241,19.538,2.862,29.549,4.806
			c10.012,1.936,20.149,4.071,30.22,6.505c10.084,2.37,20.093,5.072,29.861,8.017c9.764,2.968,19.269,6.252,28.309,9.854
			c4.525,1.787,8.933,3.656,13.195,5.605c4.271,1.928,8.393,3.951,12.334,6.057c3.951,2.086,7.724,4.256,11.291,6.494
			c3.573,2.224,6.945,4.511,10.066,6.871c6.268,4.678,11.556,9.617,15.645,14.521c4.088,4.906,6.937,9.789,8.57,14.085
			c1.687,4.288,2.261,7.876,2.457,10.335c0.141,1.238,0.107,2.15,0.123,2.775c0.008,0.623,0.012,0.945,0.012,0.945L2756.508,545.627
			z"/>
		<path fill="#0F9D58" d="M1904.271,545.576c0,0,0.031-0.561,0.091-1.646c0.015-0.271,0.031-0.576,0.05-0.913
			c0.065-0.344,0.137-0.721,0.214-1.13c0.08-0.41,0.166-0.853,0.259-1.327c0.096-0.475,0.296-0.94,0.454-1.457
			c0.604-2.083,1.866-4.455,3.612-7.028c1.77-2.572,4.238-5.175,7.201-7.831c2.964-2.667,6.551-5.236,10.582-7.799
			c2.007-1.303,4.177-2.51,6.411-3.796c2.276-1.201,4.621-2.481,7.107-3.665c4.945-2.424,10.305-4.8,16.041-7.068
			c5.73-2.286,11.817-4.528,18.234-6.662c6.409-2.157,13.135-4.252,20.139-6.257c6.999-2.032,14.276-3.973,21.785-5.855
			c15.012-3.793,30.979-7.196,47.549-10.406c33.151-6.38,68.773-11.685,104.506-15.986c17.862-2.19,35.76-4.07,53.387-5.828
			c17.628-1.755,35.003-3.211,51.836-4.313c16.837-1.051,33.126-1.827,48.581-2.262c7.728-0.202,15.243-0.399,22.515-0.589
			c7.271-0.082,14.299-0.16,21.043-0.235c13.49-0.118,25.857,0.003,36.815,0.157c10.958,0.178,20.51,0.428,28.374,0.712
			c7.863,0.272,14.04,0.546,18.251,0.777c4.21,0.223,6.456,0.341,6.456,0.341v0.945c0,0-2.244,0.129-6.452,0.371
			c-4.207,0.221-10.376,0.544-18.229,0.957c-15.688,0.797-38.099,1.936-64.991,3.302c-6.717,0.367-13.714,0.749-20.956,1.145
			c-7.239,0.405-14.723,0.825-22.416,1.256c-15.378,0.939-31.595,1.93-48.371,2.955c-16.773,1.016-34.105,2.083-51.709,3.309
			c-17.604,1.227-35.465,2.766-53.305,4.521c-35.669,3.582-71.243,8.163-104.353,13.86c-16.554,2.844-32.482,5.995-47.499,9.358
			c-7.508,1.683-14.786,3.428-21.784,5.269c-7.005,1.815-13.73,3.726-20.14,5.704c-6.417,1.956-12.503,4.024-18.231,6.144
			c-5.736,2.103-11.091,4.316-16.03,6.585c-2.485,1.106-4.822,2.308-7.097,3.436c-2.228,1.209-4.396,2.344-6.395,3.571
			c-4.024,2.403-7.612,4.811-10.566,7.318c-2.954,2.497-5.419,4.947-7.186,7.362c-1.743,2.415-3.019,4.644-3.643,6.597
			c-0.164,0.482-0.372,0.931-0.472,1.363c-0.098,0.435-0.189,0.839-0.274,1.214c-0.085,0.376-0.164,0.723-0.236,1.039
			c-0.028,0.336-0.054,0.64-0.076,0.91c-0.092,1.084-0.14,1.644-0.14,1.644L1904.271,545.576z"/>
		<path fill="#FBBC04" d="M1904.201,545.564c0,0,0.037-0.554,0.107-1.629c-0.013-0.526,0.199-1.229,0.377-2.052
			c0.136-0.854,0.563-1.7,0.945-2.718c0.941-1.928,2.322-4.247,4.482-6.466c2.123-2.244,4.825-4.552,8.068-6.799
			c3.26-2.217,7.023-4.418,11.236-6.571c4.223-2.135,8.903-4.185,13.96-6.223c10.129-4.038,21.819-7.852,34.711-11.458
			c6.447-1.803,13.2-3.53,20.207-5.243c7.016-1.669,14.284-3.333,21.782-4.908c7.497-1.583,15.219-3.114,23.132-4.547
			c7.909-1.462,16.008-2.845,24.253-4.194c32.982-5.371,68.345-9.863,103.783-13.531c17.716-1.872,35.457-3.488,52.926-5.024
			c17.47-1.536,34.684-2.801,51.357-3.725c16.676-0.865,32.808-1.479,48.111-1.754c7.651-0.13,15.094-0.256,22.293-0.378
			c7.2-0.018,14.156-0.035,20.835-0.051c6.677-0.032,13.077,0.075,19.163,0.143c6.087,0.115,11.858,0.138,17.283,0.314
			c5.424,0.153,10.5,0.297,15.193,0.43c4.693,0.183,9.003,0.351,12.896,0.502c7.785,0.332,13.899,0.655,18.068,0.92
			c4.168,0.258,6.391,0.396,6.391,0.396v1.085c0,0-2.222,0.146-6.388,0.421c-2.083,0.126-4.651,0.281-7.671,0.463
			c-3.019,0.176-6.488,0.378-10.375,0.605c-7.77,0.421-17.203,0.934-28.023,1.521c-10.814,0.559-23.015,1.19-36.324,1.878
			c-26.593,1.403-57.618,3.04-90.859,4.793c-16.617,0.835-33.788,1.699-51.235,2.576c-17.447,0.928-35.153,2.155-52.848,3.529
			c-35.378,2.845-70.694,6.513-103.638,11.106c-16.474,2.281-32.341,4.856-47.337,7.549c-7.499,1.347-14.767,2.789-21.784,4.242
			c-7.006,1.497-13.76,3.016-20.207,4.616c-12.891,3.203-24.58,6.643-34.697,10.336c-5.048,1.865-9.721,3.751-13.928,5.726
			c-4.203,1.979-7.959,4.001-11.204,6.052c-3.227,2.076-5.902,4.213-8.003,6.285c-2.142,2.052-3.488,4.176-4.434,5.938
			c-0.377,0.92-0.817,1.721-0.948,2.446c-0.179,0.725-0.406,1.3-0.415,1.86c-0.107,1.071-0.162,1.625-0.162,1.625L1904.201,545.564z
			"/>
		<path fill="#FBBC04" d="M2756.538,545.629c0,0-0.021-0.315-0.063-0.925c-0.021-0.306-0.046-0.684-0.076-1.134
			c-0.041-0.446-0.141-0.939-0.223-1.509c-0.376-2.261-1.268-5.604-3.38-9.376c-1.073-1.875-2.427-3.854-4.074-5.877
			c-1.675-2.002-3.634-4.044-5.874-6.074c-4.521-4.024-10.15-7.979-16.667-11.659c-6.511-3.69-13.88-7.149-21.867-10.333
			c-7.986-3.188-16.576-6.15-25.579-8.839c-9.005-2.686-18.418-5.106-28.042-7.318c-9.622-2.221-19.477-4.149-29.363-5.877
			c-9.897-1.675-19.836-3.128-29.649-4.298c-9.815-1.167-19.486-2.183-28.848-3.146c-9.366-0.969-18.42-1.905-27.005-2.792
			c-4.297-0.427-8.479-0.829-12.529-1.177c-4.046-0.405-7.96-0.76-11.72-1.086c-15.068-1.286-27.624-2.356-36.414-3.106
			c-4.407-0.386-7.871-0.689-10.231-0.896c-2.364-0.226-3.625-0.347-3.625-0.347v-0.886c0,0,1.263-0.111,3.63-0.32
			c2.368-0.218,5.843-0.47,10.27-0.728c2.215-0.113,4.666-0.238,7.335-0.374c2.671-0.09,5.559-0.187,8.645-0.291
			c3.087-0.094,6.372-0.119,9.837-0.151c1.732-0.011,3.51-0.022,5.328-0.034c1.819,0.018,3.68,0.036,5.58,0.054
			c3.801,0.055,7.762,0.124,11.86,0.239c4.097,0.148,8.331,0.343,12.685,0.558c8.707,0.415,17.876,1.157,27.337,2.161
			c9.456,1.051,19.196,2.439,29.05,4.108c9.852,1.676,19.846,3.456,29.781,5.549c9.943,2.042,19.849,4.288,29.521,6.824
			c9.681,2.5,19.117,5.327,28.149,8.375c9.022,3.071,17.652,6.347,25.632,9.948c7.986,3.579,15.349,7.418,21.848,11.474
			c6.505,4.043,12.121,8.347,16.613,12.7c2.229,2.197,4.172,4.4,5.824,6.554c1.618,2.185,2.924,4.321,3.949,6.333
			c2.014,4.059,2.771,7.575,3.05,9.978c0.058,0.605,0.134,1.145,0.153,1.598c0.008,0.451,0.016,0.83,0.021,1.136
			c0.012,0.611,0.018,0.927,0.018,0.927L2756.538,545.629z"/>
		<polygon fill="#4285F4" points="2502.358,220.181 2701.292,478.068 2499.872,222.118 		"/>
		<polygon fill="#4285F4" points="2502.605,239.55 2572.043,445.982 2499.625,240.577 		"/>
		<polygon fill="#4285F4" points="2462.096,222.514 2032.989,468.611 2460.52,219.785 		"/>
		<path fill="#EA4335" d="M2450.583,545.459c0,0,0.101-6.249,0.276-17.186c0.086-5.468,0.229-12.104,0.421-19.714
			c0.195-7.61,0.352-16.201,0.642-25.562c0.279-9.362,0.582-19.504,0.902-30.232c0.356-10.724,0.732-22.033,1.122-33.732
			c0.452-11.693,0.887-23.779,1.452-36.049c0.514-12.274,1.158-24.732,1.745-37.195c0.607-12.461,0.871-24.954,1.097-37.255
			c0.146-6.147,0.253-12.249,0.489-18.266c0.245-6.016,0.604-11.948,1.072-17.773c0.98-11.645,2.485-22.851,4.206-33.451
			c0.848-5.301,1.754-10.45,2.664-15.428c0.982-4.971,1.851-9.781,2.864-14.383c1.909-9.213,3.948-17.633,5.892-25.083
			c1.929-7.452,3.84-13.927,5.51-19.251c3.318-10.65,5.84-16.679,5.84-16.679l3.297,0.301c0,0,1.391,6.385,2.729,17.459
			c0.682,5.538,1.391,12.252,1.941,19.93c0.564,7.679,1.048,16.328,1.261,25.735c0.165,4.708,0.15,9.597,0.218,14.663
			c-0.005,5.06-0.043,10.288-0.169,15.655c-0.223,10.736-0.768,22.03-1.908,33.66c-0.593,5.813-1.311,11.713-2.157,17.674
			c-0.855,5.96-1.853,11.981-2.82,18.054c-2.002,12.139-4,24.474-5.654,36.839c-1.676,12.364-3.293,24.734-5.007,36.898
			c-1.661,12.17-3.417,24.136-5.086,35.718c-1.731,11.577-3.405,22.768-4.992,33.379c-1.624,10.609-3.159,20.639-4.576,29.897
			c-1.407,9.259-2.807,17.737-3.989,25.257c-1.188,7.519-2.246,14.072-3.15,19.466c-1.803,10.787-2.833,16.952-2.833,16.952
			L2450.583,545.459z"/>
		<polygon fill="#4285F4" points="2453.166,257.095 2193.759,445.982 2451.297,254.556 		"/>
		<polygon fill="#4285F4" points="2453.53,291.395 2351.379,437.086 2450.933,289.608 		"/>
	</g>
</g>
</svg>
