<?xml version="1.0" encoding="UTF-8" standalone="no"?>
<svg
   xmlns:dc="http://purl.org/dc/elements/1.1/"
   xmlns:cc="http://creativecommons.org/ns#"
   xmlns:rdf="http://www.w3.org/1999/02/22-rdf-syntax-ns#"
   xmlns:svg="http://www.w3.org/2000/svg"
   xmlns="http://www.w3.org/2000/svg"
   xmlns:sodipodi="http://sodipodi.sourceforge.net/DTD/sodipodi-0.dtd"
   xmlns:inkscape="http://www.inkscape.org/namespaces/inkscape"
   id="Layer_4"
   width="643.55518"
   height="118.5"
   version="1.1"
   sodipodi:docname="devfest.svg"
   inkscape:version="0.92.3 (2405546, 2018-03-11)">
  <metadata
     id="metadata58">
    <rdf:RDF>
      <cc:Work
         rdf:about="">
        <dc:format>image/svg+xml</dc:format>
        <dc:type
           rdf:resource="http://purl.org/dc/dcmitype/StillImage" />
        <dc:title></dc:title>
      </cc:Work>
    </rdf:RDF>
  </metadata>
  <defs
     id="defs56" />
  <sodipodi:namedview
     pagecolor="#ffffff"
     bordercolor="#666666"
     borderopacity="1"
     objecttolerance="10"
     gridtolerance="10"
     guidetolerance="10"
     inkscape:pageopacity="0"
     inkscape:pageshadow="2"
     inkscape:window-width="3840"
     inkscape:window-height="2105"
     id="namedview54"
     showgrid="false"
     fit-margin-top="0"
     fit-margin-left="0"
     fit-margin-right="0"
     fit-margin-bottom="0"
     inkscape:zoom="2.6"
     inkscape:cx="198.15218"
     inkscape:cy="78.827901"
     inkscape:window-x="0"
     inkscape:window-y="55"
     inkscape:window-maximized="1"
     inkscape:current-layer="Layer_4" />
  <style
     id="style2">.st0{fill:none}.st5{opacity:.2;enable-background:new}.st13,.st5{fill:#fff}</style>
  <path
     style="fill:#ffffff"
     inkscape:connector-curvature="0"
     id="path50"
     class="st13"
     d="m 283.05516,28.3 c 0,7 -2.1,12.6 -6.2,16.7 -4.7,4.9 -10.9,7.4 -18.4,7.4 -7.2,0 -13.4,-2.5 -18.4,-7.5 -5.1,-5 -7.6,-11.2 -7.6,-18.7 0,-7.5 2.5,-13.6 7.6,-18.7 5.1,-5 11.2,-7.5 18.4,-7.5 3.6,0 7,0.7 10.3,2.1 3.3,1.4 5.9,3.3 7.8,5.6 l -4.4,4.4 c -3.3,-4 -7.9,-6 -13.7,-6 -5.3,0 -9.8,1.9 -13.7,5.6 -3.8,3.7 -5.8,8.5 -5.8,14.5 0,5.9 1.9,10.7 5.8,14.5 3.9,3.7 8.4,5.6 13.7,5.6 5.6,0 10.3,-1.9 14,-5.6 2.4,-2.4 3.8,-5.8 4.2,-10.1 h -18.2 v -6 h 24.3 c 0.1,1.2 0.3,2.5 0.3,3.7 z m 6.3,23 V 1.2 h 15.3 c 7.7,0 13.9,2.3 18.5,7 4.6,4.6 6.9,10.7 6.9,18.1 0,7.4 -2.3,13.5 -6.9,18.1 -4.6,4.6 -10.8,7 -18.5,7 h -15.3 z m 6.5,-6.2 h 8.9 c 5.8,0 10.4,-1.7 13.8,-5 3.4,-3.3 5.1,-8 5.1,-13.9 0,-5.9 -1.7,-10.6 -5.1,-13.9 -3.4,-3.3 -8,-5 -13.8,-5 h -8.9 z m 89,-16.8 c 0,7 -2.1,12.6 -6.2,16.7 -4.7,4.9 -10.9,7.4 -18.4,7.4 -7.2,0 -13.4,-2.5 -18.4,-7.5 -5.1,-5 -7.6,-11.2 -7.6,-18.7 0,-7.5 2.5,-13.6 7.6,-18.7 5.1,-5 11.2,-7.5 18.4,-7.5 3.6,0 7,0.7 10.3,2.1 3.3,1.4 5.9,3.3 7.8,5.6 l -4.4,4.4 c -3.3,-4 -7.9,-6 -13.7,-6 -5.3,0 -9.8,1.9 -13.7,5.6 -3.8,3.7 -5.8,8.5 -5.8,14.5 0,5.9 1.9,10.7 5.8,14.5 3.9,3.7 8.4,5.6 13.7,5.6 5.6,0 10.3,-1.9 14,-5.6 2.4,-2.4 3.8,-5.8 4.2,-10.1 h -18.2 v -6 h 24.2 c 0.2,1.2 0.4,2.5 0.4,3.7 z m 23.2,23 V 1.2 h 15.3 c 7.7,0 13.9,2.3 18.5,7 4.6,4.6 6.9,10.7 6.9,18.1 0,7.4 -2.3,13.5 -6.9,18.1 -4.6,4.6 -10.8,7 -18.5,7 h -15.3 z m 6.4,-6.2 h 8.9 c 5.8,0 10.4,-1.7 13.8,-5 3.4,-3.3 5.1,-8 5.1,-13.9 0,-5.9 -1.7,-10.6 -5.1,-13.9 -3.4,-3.3 -8,-5 -13.8,-5 h -8.9 z m 55.4,7.3 c -5.2,0 -9.4,-1.7 -12.6,-5.2 -3.2,-3.5 -4.9,-7.8 -4.9,-13.1 0,-5 1.6,-9.3 4.7,-12.9 3.1,-3.6 7.2,-5.4 12.1,-5.4 5.1,0 9.2,1.7 12.2,5 3.1,3.3 4.6,7.7 4.6,13.3 l -0.1,1.2 h -27.1 c 0.2,3.5 1.3,6.2 3.5,8.2 2.1,2 4.6,3 7.5,3 4.6,0 7.7,-2 9.4,-5.9 l 5.7,2.4 c -1.1,2.7 -3,4.9 -5.5,6.7 -2.6,1.8 -5.8,2.7 -9.5,2.7 z m 9.2,-22.4 c -0.1,-2 -1,-3.8 -2.7,-5.6 -1.7,-1.8 -4.1,-2.7 -7.4,-2.7 -2.4,0 -4.4,0.7 -6.2,2.2 -1.8,1.5 -3,3.5 -3.6,6 h 19.9 z m 20.4,21.3 -13.9,-34.3 h 7 l 10.1,26.6 h 0.1 l 10.2,-26.6 h 6.9 l -14,34.3 z m 30.7,0 h -6.4 V 1.2 h 29.3 v 6.2 h -22.8 v 16.5 h 20.6 v 6 h -20.6 v 21.4 z m 42.3,1.1 c -5.2,0 -9.4,-1.7 -12.6,-5.2 -3.2,-3.5 -4.9,-7.8 -4.9,-13.1 0,-5 1.6,-9.3 4.7,-12.9 3.2,-3.6 7.2,-5.4 12.1,-5.4 5.1,0 9.2,1.7 12.2,5 3.1,3.3 4.6,7.7 4.6,13.3 l -0.1,1.2 h -27.1 c 0.2,3.5 1.3,6.2 3.5,8.2 2.1,2 4.6,3 7.5,3 4.6,0 7.7,-2 9.4,-5.9 l 5.7,2.4 c -1.1,2.7 -3,4.9 -5.5,6.7 -2.7,1.8 -5.8,2.7 -9.5,2.7 z m 9.2,-22.4 c -0.1,-2 -1,-3.8 -2.7,-5.6 -1.7,-1.8 -4.1,-2.7 -7.4,-2.7 -2.4,0 -4.4,0.7 -6.2,2.2 -1.8,1.5 -3,3.5 -3.6,6 h 19.9 z m 23.9,22.4 c -3.8,0 -7,-0.9 -9.5,-2.8 -2.5,-1.9 -4.3,-4.2 -5.5,-7 l 5.7,-2.4 c 1.8,4.3 4.9,6.4 9.3,6.4 2,0 3.7,-0.4 4.9,-1.3 1.3,-0.9 1.9,-2.1 1.9,-3.5 0,-2.2 -1.6,-3.8 -4.7,-4.5 l -6.9,-1.7 c -2.2,-0.6 -4.3,-1.6 -6.2,-3.2 -2,-1.6 -2.9,-3.7 -2.9,-6.3 0,-3 1.3,-5.5 4,-7.4 2.7,-1.9 5.9,-2.8 9.6,-2.8 3,0 5.7,0.7 8.1,2.1 2.4,1.4 4.1,3.3 5.1,5.9 l -5.6,2.3 c -1.3,-3 -3.9,-4.6 -7.8,-4.6 -1.9,0 -3.5,0.4 -4.8,1.2 -1.3,0.8 -2,1.9 -2,3.2 0,2 1.5,3.3 4.5,4 l 6.8,1.6 c 3.2,0.7 5.6,2 7.1,3.9 1.5,1.8 2.3,3.9 2.3,6.2 0,3.1 -1.3,5.6 -3.8,7.7 -2.3,2 -5.6,3 -9.6,3 z m 32.9,-0.5 c -3.6,0 -6.3,-1 -8.2,-2.9 -1.9,-1.9 -2.8,-4.6 -2.8,-8.1 v -18 h -6 V 17 h 6 V 6.5 h 6.4 V 17 h 8.4 v 5.9 h -8.4 v 17.5 c 0,3.7 1.5,5.6 4.6,5.6 1.2,0 2.1,-0.2 2.9,-0.6 l 2.2,5.5 c -1.3,0.7 -3,1 -5.1,1 z"
     sodipodi:nodetypes="scscscssccscscssccccsccscssscccsssssccscscscssccscscssccccsccscssscccsssssccssssscccccscccscsssccccccccccccccccccccccccssscscccccscccscssscccssccscscccssssccssscccscssssccccccccccssccs" />
  <g
     id="g3785"
     transform="matrix(0.70421965,0,0,0.70421965,130.84133,14.134178)">
    <g
       transform="translate(-185.7962,-3.6468644)"
       id="logo">
      <g
         id="image2vector">
        <path
           style="fill:#ec4235"
           inkscape:connector-curvature="0"
           id="path0"
           d="m 94.963578,0.91079664 c -3.064,0.90999996 -4.403,1.59599996 -14.185,7.26199996 -4.404,2.5510004 -11.875,6.8650004 -16.601,9.5860004 -8.036,4.627 -30.11,17.379 -41.592,24.027 -2.786,1.614 -5.642,3.299 -6.346,3.745 l -1.281,0.813 1.562,-0.249 c 6.108,-0.971 12.949,-0.321 14.825,1.409 0.204,0.189 0.673,0.343 1.041,0.343 0.369,0 0.729,0.144 0.801,0.321 0.11,0.273 2.771,1.832 11.303,6.623 0.773,0.434 2.795,1.608 4.492,2.608 1.697,1 3.349,1.973 3.671,2.161 0.842,0.492 7.723,4.444 9.571,5.496 0.859,0.489 2.269,1.293 3.134,1.785 l 1.571,0.895 1.554,-0.892 c 7.295,-4.194 18.275,-10.53 23.428,-13.521 3.438,-1.995 9.678002,-5.581 13.867002,-7.969 11.318,-6.453 14.998,-10.507 16.674,-18.369 3.377,-15.836 -12.203,-30.6140004 -27.489002,-26.07400036" />
        <path
           style="fill:#4285f6"
           inkscape:connector-curvature="0"
           id="path1"
           d="m 18.083578,45.893797 c -0.43,0.184 -1.337,0.348 -2.017,0.363 -1.952,0.043 -6.6640001,2.988 -9.7020001,6.064 -10.456,10.588 -7.656,28.083 5.6640001,35.396 2.586,1.42 7.807,4.424 25.196,14.496003 5.371,3.111 16.269,9.407 24.218,13.99 7.95,4.584 17.793,10.281 21.875,12.659 12.625,7.357 18.474002,8.239 27.099002,4.085 16.852,-8.116 16.663,-30.343 -0.341,-40.246003 -6.605,-3.846 -45.246002,-26.172 -48.047002,-27.76 -1.467,-0.832 -8.406,-4.814 -9.375,-5.381 -0.322,-0.188 -1.974,-1.161 -3.671,-2.161 -1.697,-1 -3.719,-2.174 -4.492,-2.608 -8.532,-4.791 -11.193,-6.35 -11.303,-6.623 -0.072,-0.177 -0.432,-0.321 -0.801,-0.321 -0.368,0 -0.837,-0.153 -1.041,-0.34 -1.694,-1.549 -10.826,-2.66 -13.262,-1.613" />
        <path
           style="fill:#109d58"
           inkscape:connector-curvature="0"
           id="path2"
           d="m 173.00058,0.99179664 c -16.424,4.30099996 -22.22,24.47600036 -10.58,36.82800036 1.819,1.93 3.695,3.236 9.435,6.565 7.637,4.428 26.567,15.356 28.845,16.65 3.05,1.734 10.866,6.296 12.695,7.411 1.075,0.655 3.887,2.289 6.25,3.631 2.364,1.342 9.043,5.181 14.844,8.531 17.227,9.949 19.302,10.619 27.558,8.891 10.974,-2.296 18.761,-14.097 16.808,-25.472 -1.573,-9.16 -4.395,-11.882 -24.053,-23.195 -8.379,-4.822 -16.465,-9.493 -17.969,-10.381 -1.504,-0.887 -5.811,-3.383 -9.57,-5.544 -3.76,-2.162 -13.604,-7.846 -21.875,-12.631 -22.339,-12.92300036 -23.965,-13.4900004 -32.388,-11.28400036" />
        <path
           style="fill:#f9bb04"
           inkscape:connector-curvature="0"
           id="path3"
           d="m 209.09258,69.630797 c -1.715,0.972 -7.689,4.402 -13.275,7.622 -5.586,3.22 -12.002,6.912 -14.257,8.204 -16.876,9.662 -19.551,11.613 -22.234,16.217003 -8.599,14.757 2.133,33.661 19.109,33.661 4.866,0 8.448,-1.218 14.843,-5.047 2.041,-1.222 5.205,-3.052 7.032,-4.066 3.81,-2.115 3.558,-1.971 7.421,-4.27 2.819,-1.678 5.177,-3.043 19.727,-11.42 3.652,-2.102 7.607,-4.384 8.789,-5.069 1.182,-0.685 6.367,-3.673 11.523,-6.640003 5.157,-2.967 10.031,-5.806 10.833,-6.31 0.801,-0.504 1.542,-0.916 1.646,-0.916 0.104,0 1.031,-0.545 2.059,-1.212 l 1.869,-1.211 -1.367,0.249 c -9.32,1.695 -11.091,1.144 -28.321,-8.81 -13.346,-7.71 -17.43,-10.054 -20.124,-11.551 l -2.155,-1.197 -3.118,1.766" />
      </g>
    </g>
  </g>
  <flowRoot
     xml:space="preserve"
     id="flowRoot3787"
     style="fill:black;fill-opacity:1;stroke:none;font-family:sans-serif;font-style:normal;font-weight:normal;font-size:40px;line-height:1.25;letter-spacing:0px;word-spacing:0px"><flowRegion
       id="flowRegion3789"><rect
         id="rect3791"
         width="529.96729"
         height="161.76328"
         x="50.069588"
         y="-339.82928" /></flowRegion><flowPara
       id="flowPara3793" /></flowRoot>  <g
     aria-label="Pisa 2020"
     style="font-style:normal;font-weight:normal;font-size:40px;line-height:1.25;font-family:sans-serif;letter-spacing:0px;word-spacing:0px;fill:#000000;fill-opacity:1;stroke:none"
     id="text3797">
    <path
       d="m 238.83383,118.12609 h -6.37866 V 68.483423 h 16.91733 q 6.30933,0 10.88533,4.229333 4.64534,4.16 4.64534,10.538667 0,6.378667 -4.64534,10.608 -4.576,4.160001 -10.88533,4.160001 h -10.53867 z m 0,-26.208 h 10.67734 q 4.02133,0 6.448,-2.704 2.42666,-2.704 2.42666,-5.962667 0,-3.258667 -2.42666,-5.962667 -2.42667,-2.704 -6.448,-2.704 h -10.67734 z"
       style="font-style:normal;font-variant:normal;font-weight:normal;font-stretch:normal;font-size:69.33333588px;font-family:'Product Sans';-inkscape-font-specification:'Product Sans';fill:#ffffff"
       id="path35" />
    <path
       d="m 277.41458,75.624756 q -1.31733,1.317333 -3.18933,1.317333 -1.872,0 -3.18933,-1.317333 -1.31734,-1.317333 -1.31734,-3.189333 0,-1.872 1.31734,-3.189334 1.31733,-1.317333 3.18933,-1.317333 1.872,0 3.18933,1.317333 1.31734,1.317334 1.31734,3.189334 0,1.872 -1.31734,3.189333 z m 0,42.501334 h -6.37866 V 84.152756 h 6.37866 z"
       style="font-style:normal;font-variant:normal;font-weight:normal;font-stretch:normal;font-size:69.33333588px;font-family:'Product Sans';-inkscape-font-specification:'Product Sans';fill:#ffffff"
       id="path37" />
    <path
       d="m 298.402,119.23542 q -5.68533,0 -9.42933,-2.77333 -3.67467,-2.77333 -5.408,-6.93333 l 5.68533,-2.35734 q 2.704,6.37867 9.22133,6.37867 2.98134,0 4.85334,-1.31733 1.94133,-1.31734 1.94133,-3.46667 0,-3.328 -4.64533,-4.50667 l -6.864,-1.664 q -3.25867,-0.832 -6.17067,-3.119996 -2.912,-2.357334 -2.912,-6.309334 0,-4.506667 3.952,-7.28 4.02133,-2.842667 9.49867,-2.842667 4.50666,0 8.04266,2.08 3.536,2.010667 5.06134,5.824 l -5.54667,2.288 q -1.872,-4.506666 -7.76533,-4.506666 -2.84267,0 -4.784,1.178666 -1.94134,1.178667 -1.94134,3.189334 0,2.912 4.50667,3.952 l 6.72533,1.594667 q 4.784,1.109333 7.072,3.813336 2.288,2.704 2.288,6.10133 0,4.576 -3.744,7.62667 -3.744,3.05066 -9.63733,3.05066 z"
       style="font-style:normal;font-variant:normal;font-weight:normal;font-stretch:normal;font-size:69.33333588px;font-family:'Product Sans';-inkscape-font-specification:'Product Sans';fill:#ffffff"
       id="path39" />
    <path
       d="m 328.48834,119.23542 q -5.40801,0 -9.08267,-3.12 -3.60534,-3.12 -3.60534,-8.25066 0,-5.54667 4.29867,-8.66667 4.29867,-3.189333 10.608,-3.189333 5.616,0 9.22134,2.08 V 97.11809 q 0,-3.744 -2.56534,-5.962667 -2.56533,-2.288 -6.30933,-2.288 -2.77333,0 -5.06134,1.317334 -2.21866,1.317333 -3.05066,3.605333 l -5.824,-2.496 q 1.17866,-3.050667 4.64533,-5.616 3.46667,-2.634667 9.152,-2.634667 6.51734,0 10.816,3.813334 4.29867,3.813333 4.29867,10.746667 v 20.522666 h -6.10133 v -4.71467 H 339.651 q -3.81333,5.824 -11.16266,5.824 z m 1.04,-5.824 q 3.952,0 7.14133,-2.912 3.25867,-2.98133 3.25867,-7.00266 -2.704,-2.21867 -8.112,-2.21867 -4.64534,0 -7.00267,2.01067 -2.35734,2.01066 -2.35734,4.71466 0,2.496 2.14934,3.952 2.14933,1.456 4.92267,1.456 z"
       style="font-style:normal;font-variant:normal;font-weight:normal;font-stretch:normal;font-size:69.33333588px;font-family:'Product Sans';-inkscape-font-specification:'Product Sans';fill:#ffffff"
       id="path41" />
    <path
       d="m 397.64293,118.12609 h -30.22934 v -6.37867 q 13.58934,-13.658663 17.40267,-17.818663 3.39733,-3.813334 4.576,-5.754667 1.17867,-2.010667 1.17867,-4.922667 0,-2.981333 -2.35734,-5.269333 -2.35733,-2.288001 -6.30933,-2.288001 -3.60533,0 -5.824,2.149334 -2.21867,2.08 -2.84267,4.506667 l -5.824,-2.357334 q 1.17867,-3.744 4.92267,-7.072 3.744,-3.328 9.70667,-3.328 6.58666,0 10.816,4.021333 4.22933,4.021334 4.22933,9.637334 0,6.933334 -7.55733,14.837334 l -13.86667,13.936003 h 21.97867 z"
       style="font-style:normal;font-variant:normal;font-weight:normal;font-stretch:normal;font-size:69.33333588px;font-family:'Product Sans';-inkscape-font-specification:'Product Sans';fill:#ffffff"
       id="path43" />
    <path
       d="m 436.57576,112.09409 q -5.26934,7.14133 -13.79734,7.14133 -8.528,0 -13.79733,-7.14133 -5.26934,-7.14133 -5.26934,-17.68 0,-10.608 5.26934,-17.680001 5.26933,-7.141333 13.79733,-7.141333 8.528,0 13.79734,7.141333 5.26933,7.072001 5.26933,17.680001 0,10.53867 -5.26933,17.68 z m -13.79734,1.04 q 5.68533,0 9.08267,-5.33867 3.46666,-5.33866 3.46666,-13.38133 0,-8.112 -3.46666,-13.381334 -3.39734,-5.338667 -9.08267,-5.338667 -5.75467,0 -9.152,5.338667 -3.39733,5.269334 -3.39733,13.381334 0,8.04267 3.39733,13.38133 3.39733,5.33867 9.152,5.33867 z"
       style="font-style:normal;font-variant:normal;font-weight:normal;font-stretch:normal;font-size:69.33333588px;font-family:'Product Sans';-inkscape-font-specification:'Product Sans';fill:#ffffff"
       id="path45" />
    <path
       d="m 477.26793,118.12609 h -30.22934 v -6.37867 q 13.58934,-13.658663 17.40267,-17.818663 3.39733,-3.813334 4.576,-5.754667 1.17867,-2.010667 1.17867,-4.922667 0,-2.981333 -2.35734,-5.269333 -2.35733,-2.288001 -6.30933,-2.288001 -3.60533,0 -5.824,2.149334 -2.21867,2.08 -2.84267,4.506667 l -5.824,-2.357334 q 1.17867,-3.744 4.92267,-7.072 3.744,-3.328 9.70667,-3.328 6.58666,0 10.816,4.021333 4.22933,4.021334 4.22933,9.637334 0,6.933334 -7.55733,14.837334 l -13.86667,13.936003 h 21.97867 z"
       style="font-style:normal;font-variant:normal;font-weight:normal;font-stretch:normal;font-size:69.33333588px;font-family:'Product Sans';-inkscape-font-specification:'Product Sans';fill:#ffffff"
       id="path47" />
    <path
       d="m 516.20076,112.09409 q -5.26934,7.14133 -13.79734,7.14133 -8.528,0 -13.79733,-7.14133 -5.26934,-7.14133 -5.26934,-17.68 0,-10.608 5.26934,-17.680001 5.26933,-7.141333 13.79733,-7.141333 8.528,0 13.79734,7.141333 5.26933,7.072001 5.26933,17.680001 0,10.53867 -5.26933,17.68 z m -13.79734,1.04 q 5.68533,0 9.08267,-5.33867 3.46666,-5.33866 3.46666,-13.38133 0,-8.112 -3.46666,-13.381334 -3.39734,-5.338667 -9.08267,-5.338667 -5.75467,0 -9.152,5.338667 -3.39733,5.269334 -3.39733,13.381334 0,8.04267 3.39733,13.38133 3.39733,5.33867 9.152,5.33867 z"
       style="font-style:normal;font-variant:normal;font-weight:normal;font-stretch:normal;font-size:69.33333588px;font-family:'Product Sans';-inkscape-font-specification:'Product Sans';fill:#ffffff"
       id="path49" />
  </g>
</svg>
