<?xml version="1.0" encoding="UTF-8" standalone="no"?>
<svg
   xmlns:dc="http://purl.org/dc/elements/1.1/"
   xmlns:cc="http://creativecommons.org/ns#"
   xmlns:rdf="http://www.w3.org/1999/02/22-rdf-syntax-ns#"
   xmlns:svg="http://www.w3.org/2000/svg"
   xmlns="http://www.w3.org/2000/svg"
   xmlns:sodipodi="http://sodipodi.sourceforge.net/DTD/sodipodi-0.dtd"
   xmlns:inkscape="http://www.inkscape.org/namespaces/inkscape"
   id="Layer_4"
   width="153.64195"
   height="28.46619"
   version="1.1"
   sodipodi:docname="logo-monochrome.svg"
   inkscape:version="0.92.3 (2405546, 2018-03-11)">
  <metadata
     id="metadata58">
    <rdf:RDF>
      <cc:Work
         rdf:about="">
        <dc:format>image/svg+xml</dc:format>
        <dc:type
           rdf:resource="http://purl.org/dc/dcmitype/StillImage" />
        <dc:title></dc:title>
      </cc:Work>
    </rdf:RDF>
  </metadata>
  <defs
     id="defs56" />
  <sodipodi:namedview
     pagecolor="#ffffff"
     bordercolor="#666666"
     borderopacity="1"
     objecttolerance="10"
     gridtolerance="10"
     guidetolerance="10"
     inkscape:pageopacity="0"
     inkscape:pageshadow="2"
     inkscape:window-width="3840"
     inkscape:window-height="2105"
     id="namedview54"
     showgrid="false"
     fit-margin-top="0"
     fit-margin-left="0"
     fit-margin-right="0"
     fit-margin-bottom="0"
     inkscape:zoom="2.6"
     inkscape:cx="198.15219"
     inkscape:cy="4.1787066"
     inkscape:window-x="0"
     inkscape:window-y="55"
     inkscape:window-maximized="1"
     inkscape:current-layer="g124" />
  <style
     id="style2">.st0{fill:none}.st5{opacity:.2;enable-background:new}.st13,.st5{fill:#fff}</style>
  <flowRoot
     xml:space="preserve"
     id="flowRoot3787"
     style="font-style:normal;font-weight:normal;font-size:40px;line-height:1.25;font-family:sans-serif;letter-spacing:0px;word-spacing:0px;fill:#000000;fill-opacity:1;stroke:none"
     transform="translate(4.5736312e-6)"><flowRegion
       id="flowRegion3789"><rect
         id="rect3791"
         width="529.96729"
         height="161.76328"
         x="50.069588"
         y="-339.82928" /></flowRegion><flowPara
       id="flowPara3793" /></flowRoot>  <g
     id="g124"
     transform="matrix(0.31615571,0,0,0.31615571,1.2161246e-6,0)">
    <path
       sodipodi:nodetypes="scscscssccscscssccccsccscssscccsssssccscscscssccscscssccccsccscssscccsssssccssssscccccscccscsssccccccccccccccccccccccccssscscccccscccscssscccssccscscccssssccssscccscssssccccccccccssccs"
       d="m 213.74408,21.370243 c 0,5.285926 -1.58578,9.514666 -4.68182,12.610709 -3.54912,3.700148 -8.23094,5.587978 -13.89443,5.587978 -5.43696,0 -10.11878,-1.88783 -13.89444,-5.663492 -3.85117,-3.775661 -5.739,-8.457481 -5.739,-14.120973 0,-5.663492 1.88783,-10.2697986 5.739,-14.1209731 C 185.12457,1.8878306 189.73087,0 195.16783,0 c 2.71847,0 5.28592,0.52859258 7.77786,1.5857777 2.49194,1.0571852 4.45528,2.4919365 5.89003,4.2287407 l -3.32258,3.3225819 c -2.49194,-3.020529 -5.96555,-4.5307935 -10.34531,-4.5307935 -4.0022,0 -7.4003,1.4347513 -10.34531,4.2287406 -2.86951,2.7939896 -4.37977,6.4186246 -4.37977,10.9494176 0,4.45528 1.43475,8.079915 4.37977,10.949418 2.94501,2.793989 6.34311,4.22874 10.34531,4.22874 4.22874,0 7.77786,-1.434751 10.57185,-4.22874 1.81232,-1.812318 2.8695,-4.379767 3.17155,-7.626836 h -13.7434 v -4.530793 h 18.34971 c 0.0755,0.906158 0.22654,1.88783 0.22654,2.793989 z m 4.75733,17.368042 V 0.90615871 h 11.55353 c 5.81452,0 10.49634,1.73680419 13.96994,5.28592579 3.47361,3.4736084 5.21042,8.0799155 5.21042,13.6678935 0,5.587979 -1.73681,10.194286 -5.21042,13.667894 -3.4736,3.473609 -8.15542,5.285926 -13.96994,5.285926 h -11.55353 z m 4.90836,-4.68182 h 6.72068 c 4.37977,0 7.85338,-1.283725 10.42083,-3.775661 2.56745,-2.491937 3.85117,-6.041059 3.85117,-10.496339 0,-4.45528 -1.28372,-8.004402 -3.85117,-10.4963382 -2.56745,-2.4919365 -6.04106,-3.7756613 -10.42083,-3.7756613 h -6.72068 z m 67.20677,-12.686222 c 0,5.285926 -1.58577,9.514666 -4.68182,12.610709 -3.54912,3.700148 -8.23094,5.587978 -13.89443,5.587978 -5.43695,0 -10.11877,-1.88783 -13.89443,-5.663492 -3.85118,-3.775661 -5.73901,-8.457481 -5.73901,-14.120973 0,-5.663492 1.88783,-10.2697986 5.73901,-14.1209731 C 261.99703,1.8878306 266.60334,0 272.04029,0 c 2.71848,0 5.28593,0.52859258 7.77786,1.5857777 2.49194,1.0571852 4.45528,2.4919365 5.89003,4.2287407 l -3.32258,3.3225819 c -2.49193,-3.020529 -5.96554,-4.5307935 -10.34531,-4.5307935 -4.0022,0 -7.4003,1.4347513 -10.34531,4.2287406 -2.8695,2.7939896 -4.37977,6.4186246 -4.37977,10.9494176 0,4.45528 1.43475,8.079915 4.37977,10.949418 2.94501,2.793989 6.34311,4.22874 10.34531,4.22874 4.22874,0 7.77786,-1.434751 10.57185,-4.22874 1.81232,-1.812318 2.86951,-4.379767 3.17156,-7.626836 h -13.74341 v -4.530793 h 18.2742 c 0.15103,0.906158 0.30205,1.88783 0.30205,2.793989 z m 17.51907,17.368042 V 0.90615871 h 11.55353 c 5.81451,0 10.49633,1.73680419 13.96994,5.28592579 3.47361,3.4736084 5.21042,8.0799155 5.21042,13.6678935 0,5.587979 -1.73681,10.194286 -5.21042,13.667894 -3.47361,3.473609 -8.15543,5.285926 -13.96994,5.285926 h -11.55353 z m 4.83285,-4.68182 h 6.72068 c 4.37976,0 7.85337,-1.283725 10.42082,-3.775661 2.56745,-2.491937 3.85118,-6.041059 3.85118,-10.496339 0,-4.45528 -1.28373,-8.004402 -3.85118,-10.4963382 -2.56745,-2.4919365 -6.04106,-3.7756613 -10.42082,-3.7756613 h -6.72068 z m 41.83433,5.512465 c -3.92669,0 -7.09825,-1.283725 -9.51467,-3.926687 -2.41642,-2.642963 -3.70015,-5.890032 -3.70015,-9.892233 0,-3.775661 1.20821,-7.02273 3.54912,-9.741206 2.34091,-2.718476 5.43696,-4.077714 9.1371,-4.077714 3.85118,0 6.94722,1.283724 9.21262,3.775661 2.34091,2.491936 3.47361,5.814518 3.47361,10.043259 l -0.0755,0.906159 h -20.46408 c 0.15102,2.642963 0.98167,4.68182 2.64296,6.192084 1.58578,1.510265 3.47361,2.265397 5.66349,2.265397 3.47361,0 5.81452,-1.510265 7.09825,-4.45528 l 4.30425,1.812317 c -0.83065,2.038857 -2.2654,3.700148 -4.15323,5.059386 -1.96334,1.359238 -4.37976,2.038857 -7.17375,2.038857 z M 361.75,22.653968 c -0.0755,-1.510265 -0.75513,-2.869503 -2.03885,-4.228741 -1.28373,-1.359238 -3.09605,-2.038857 -5.58798,-2.038857 -1.81232,0 -3.32258,0.528593 -4.68182,1.661291 -1.35924,1.132698 -2.2654,2.642963 -2.71848,4.530793 H 361.75 Z m 15.4047,16.084317 -10.49634,-25.901037 h 5.28593 l 7.62683,20.086518 h 0.0755 l 7.70235,-20.086518 h 5.21041 l -10.57185,25.901037 z m 23.18256,0 h -4.83285 V 0.90615871 h 22.12538 V 5.5879787 H 400.41277 V 18.047661 h 15.55573 v 4.530793 h -15.55573 v 16.159831 z m 31.9421,0.830645 c -3.92669,0 -7.09825,-1.283725 -9.51467,-3.926687 -2.41642,-2.642963 -3.70015,-5.890032 -3.70015,-9.892233 0,-3.775661 1.20821,-7.02273 3.54912,-9.741206 2.41643,-2.718476 5.43696,-4.077714 9.1371,-4.077714 3.85118,0 6.94722,1.283724 9.21262,3.775661 2.34091,2.491936 3.47361,5.814518 3.47361,10.043259 l -0.0755,0.906159 h -20.46408 c 0.15102,2.642963 0.98167,4.68182 2.64296,6.192084 1.58578,1.510265 3.47361,2.265397 5.66349,2.265397 3.47361,0 5.81452,-1.510265 7.09825,-4.45528 l 4.30425,1.812317 c -0.83065,2.038857 -2.2654,3.700148 -4.15323,5.059386 -2.03885,1.359238 -4.37976,2.038857 -7.17375,2.038857 z m 6.94721,-16.914962 c -0.0755,-1.510265 -0.75513,-2.869503 -2.03885,-4.228741 -1.28373,-1.359238 -3.09605,-2.038857 -5.58798,-2.038857 -1.81232,0 -3.32259,0.528593 -4.68182,1.661291 -1.35924,1.132698 -2.2654,2.642963 -2.71848,4.530793 h 15.02713 z m 18.04766,16.914962 c -2.8695,0 -5.28592,-0.679619 -7.17375,-2.11437 -1.88783,-1.434751 -3.24707,-3.171556 -4.15323,-5.285926 l 4.30425,-1.812317 c 1.35924,3.247068 3.70015,4.832846 7.02273,4.832846 1.51027,0 2.79399,-0.302053 3.70015,-0.981672 0.98167,-0.679619 1.43475,-1.585777 1.43475,-2.642963 0,-1.661291 -1.20821,-2.869502 -3.54912,-3.398095 l -5.21041,-1.283725 c -1.66129,-0.453079 -3.24707,-1.208211 -4.68182,-2.416423 -1.51027,-1.208211 -2.18988,-2.793989 -2.18988,-4.757333 0,-2.265397 0.98167,-4.153228 3.02052,-5.587979 2.03886,-1.434751 4.45528,-2.11437 7.24927,-2.11437 2.2654,0 4.30426,0.528592 6.11658,1.585778 1.81231,1.057185 3.09604,2.491936 3.85117,4.45528 l -4.22874,1.736804 c -0.98167,-2.265397 -2.94502,-3.473608 -5.89003,-3.473608 -1.43475,0 -2.64297,0.302053 -3.62464,0.906158 -0.98167,0.604106 -1.51026,1.434752 -1.51026,2.416424 0,1.510264 1.1327,2.491936 3.39809,3.020529 l 5.1349,1.208211 c 2.41643,0.528593 4.22874,1.510265 5.36144,2.945016 1.1327,1.359238 1.73681,2.945016 1.73681,4.68182 0,2.34091 -0.98168,4.228741 -2.86951,5.814518 -1.7368,1.510265 -4.22874,2.265397 -7.24927,2.265397 z m 24.84385,-0.377566 c -2.71847,0 -4.75733,-0.755132 -6.19208,-2.189883 -1.43475,-1.434752 -2.11437,-3.473609 -2.11437,-6.116572 v -13.59238 h -4.53079 v -4.455281 h 4.53079 V 4.9083597 h 4.83285 v 7.9288883 h 6.34311 v 4.455281 h -6.34311 v 13.214814 c 0,2.79399 1.13269,4.228741 3.4736,4.228741 0.90616,0 1.58578,-0.151027 2.18989,-0.45308 l 1.66129,4.153228 c -0.98167,0.528592 -2.2654,0.755132 -3.85118,0.755132 z"
       class="st13"
       id="path50"
       inkscape:connector-curvature="0"
       style="fill:#000080;stroke-width:0.75513226" />
    <g
       style="fill:#000080"
       transform="matrix(0.53177897,0,0,0.53177897,98.802508,10.673174)"
       id="g3785">
      <g
         style="fill:#000080"
         id="logo"
         transform="translate(-185.7962,-3.6468644)">
        <g
           style="fill:#000080"
           id="image2vector">
          <path
             d="m 94.963578,0.91079664 c -3.064,0.90999996 -4.403,1.59599996 -14.185,7.26199996 -4.404,2.5510004 -11.875,6.8650004 -16.601,9.5860004 -8.036,4.627 -30.11,17.379 -41.592,24.027 -2.786,1.614 -5.642,3.299 -6.346,3.745 l -1.281,0.813 1.562,-0.249 c 6.108,-0.971 12.949,-0.321 14.825,1.409 0.204,0.189 0.673,0.343 1.041,0.343 0.369,0 0.729,0.144 0.801,0.321 0.11,0.273 2.771,1.832 11.303,6.623 0.773,0.434 2.795,1.608 4.492,2.608 1.697,1 3.349,1.973 3.671,2.161 0.842,0.492 7.723,4.444 9.571,5.496 0.859,0.489 2.269,1.293 3.134,1.785 l 1.571,0.895 1.554,-0.892 c 7.295,-4.194 18.275,-10.53 23.428,-13.521 3.438,-1.995 9.678002,-5.581 13.867002,-7.969 11.318,-6.453 14.998,-10.507 16.674,-18.369 3.377,-15.836 -12.203,-30.6140004 -27.489002,-26.07400036"
             id="path0"
             inkscape:connector-curvature="0"
             style="fill:#000080" />
          <path
             d="m 18.083578,45.893797 c -0.43,0.184 -1.337,0.348 -2.017,0.363 -1.952,0.043 -6.6640001,2.988 -9.7020001,6.064 -10.456,10.588 -7.656,28.083 5.6640001,35.396 2.586,1.42 7.807,4.424 25.196,14.496003 5.371,3.111 16.269,9.407 24.218,13.99 7.95,4.584 17.793,10.281 21.875,12.659 12.625,7.357 18.474002,8.239 27.099002,4.085 16.852,-8.116 16.663,-30.343 -0.341,-40.246003 -6.605,-3.846 -45.246002,-26.172 -48.047002,-27.76 -1.467,-0.832 -8.406,-4.814 -9.375,-5.381 -0.322,-0.188 -1.974,-1.161 -3.671,-2.161 -1.697,-1 -3.719,-2.174 -4.492,-2.608 -8.532,-4.791 -11.193,-6.35 -11.303,-6.623 -0.072,-0.177 -0.432,-0.321 -0.801,-0.321 -0.368,0 -0.837,-0.153 -1.041,-0.34 -1.694,-1.549 -10.826,-2.66 -13.262,-1.613"
             id="path1"
             inkscape:connector-curvature="0"
             style="fill:#000080" />
          <path
             d="m 173.00058,0.99179664 c -16.424,4.30099996 -22.22,24.47600036 -10.58,36.82800036 1.819,1.93 3.695,3.236 9.435,6.565 7.637,4.428 26.567,15.356 28.845,16.65 3.05,1.734 10.866,6.296 12.695,7.411 1.075,0.655 3.887,2.289 6.25,3.631 2.364,1.342 9.043,5.181 14.844,8.531 17.227,9.949 19.302,10.619 27.558,8.891 10.974,-2.296 18.761,-14.097 16.808,-25.472 -1.573,-9.16 -4.395,-11.882 -24.053,-23.195 -8.379,-4.822 -16.465,-9.493 -17.969,-10.381 -1.504,-0.887 -5.811,-3.383 -9.57,-5.544 -3.76,-2.162 -13.604,-7.846 -21.875,-12.631 -22.339,-12.92300036 -23.965,-13.4900004 -32.388,-11.28400036"
             id="path2"
             inkscape:connector-curvature="0"
             style="fill:#000080" />
          <path
             d="m 209.09258,69.630797 c -1.715,0.972 -7.689,4.402 -13.275,7.622 -5.586,3.22 -12.002,6.912 -14.257,8.204 -16.876,9.662 -19.551,11.613 -22.234,16.217003 -8.599,14.757 2.133,33.661 19.109,33.661 4.866,0 8.448,-1.218 14.843,-5.047 2.041,-1.222 5.205,-3.052 7.032,-4.066 3.81,-2.115 3.558,-1.971 7.421,-4.27 2.819,-1.678 5.177,-3.043 19.727,-11.42 3.652,-2.102 7.607,-4.384 8.789,-5.069 1.182,-0.685 6.367,-3.673 11.523,-6.640003 5.157,-2.967 10.031,-5.806 10.833,-6.31 0.801,-0.504 1.542,-0.916 1.646,-0.916 0.104,0 1.031,-0.545 2.059,-1.212 l 1.869,-1.211 -1.367,0.249 c -9.32,1.695 -11.091,1.144 -28.321,-8.81 -13.346,-7.71 -17.43,-10.054 -20.124,-11.551 l -2.155,-1.197 -3.118,1.766"
             id="path3"
             inkscape:connector-curvature="0"
             style="fill:#000080" />
        </g>
      </g>
    </g>
    <g
       id="text3797"
       style="font-style:normal;font-weight:normal;font-size:40px;line-height:1.25;font-family:sans-serif;letter-spacing:0px;word-spacing:0px;fill:#000080;fill-opacity:1;stroke:none"
       aria-label="Pisa 2020"
       transform="matrix(0.75513226,0,0,0.75513226,-1.2022401e-6,0)">
      <path
         inkscape:connector-curvature="0"
         id="path35"
         style="font-style:normal;font-variant:normal;font-weight:normal;font-stretch:normal;font-size:69.33333588px;font-family:'Product Sans';-inkscape-font-specification:'Product Sans';fill:#000080"
         d="m 238.83383,118.12609 h -6.37866 V 68.483423 h 16.91733 q 6.30933,0 10.88533,4.229333 4.64534,4.16 4.64534,10.538667 0,6.378667 -4.64534,10.608 -4.576,4.160001 -10.88533,4.160001 h -10.53867 z m 0,-26.208 h 10.67734 q 4.02133,0 6.448,-2.704 2.42666,-2.704 2.42666,-5.962667 0,-3.258667 -2.42666,-5.962667 -2.42667,-2.704 -6.448,-2.704 h -10.67734 z" />
      <path
         inkscape:connector-curvature="0"
         id="path37"
         style="font-style:normal;font-variant:normal;font-weight:normal;font-stretch:normal;font-size:69.33333588px;font-family:'Product Sans';-inkscape-font-specification:'Product Sans';fill:#000080"
         d="m 277.41458,75.624756 q -1.31733,1.317333 -3.18933,1.317333 -1.872,0 -3.18933,-1.317333 -1.31734,-1.317333 -1.31734,-3.189333 0,-1.872 1.31734,-3.189334 1.31733,-1.317333 3.18933,-1.317333 1.872,0 3.18933,1.317333 1.31734,1.317334 1.31734,3.189334 0,1.872 -1.31734,3.189333 z m 0,42.501334 h -6.37866 V 84.152756 h 6.37866 z" />
      <path
         inkscape:connector-curvature="0"
         id="path39"
         style="font-style:normal;font-variant:normal;font-weight:normal;font-stretch:normal;font-size:69.33333588px;font-family:'Product Sans';-inkscape-font-specification:'Product Sans';fill:#000080"
         d="m 298.402,119.23542 q -5.68533,0 -9.42933,-2.77333 -3.67467,-2.77333 -5.408,-6.93333 l 5.68533,-2.35734 q 2.704,6.37867 9.22133,6.37867 2.98134,0 4.85334,-1.31733 1.94133,-1.31734 1.94133,-3.46667 0,-3.328 -4.64533,-4.50667 l -6.864,-1.664 q -3.25867,-0.832 -6.17067,-3.119996 -2.912,-2.357334 -2.912,-6.309334 0,-4.506667 3.952,-7.28 4.02133,-2.842667 9.49867,-2.842667 4.50666,0 8.04266,2.08 3.536,2.010667 5.06134,5.824 l -5.54667,2.288 q -1.872,-4.506666 -7.76533,-4.506666 -2.84267,0 -4.784,1.178666 -1.94134,1.178667 -1.94134,3.189334 0,2.912 4.50667,3.952 l 6.72533,1.594667 q 4.784,1.109333 7.072,3.813336 2.288,2.704 2.288,6.10133 0,4.576 -3.744,7.62667 -3.744,3.05066 -9.63733,3.05066 z" />
      <path
         inkscape:connector-curvature="0"
         id="path41"
         style="font-style:normal;font-variant:normal;font-weight:normal;font-stretch:normal;font-size:69.33333588px;font-family:'Product Sans';-inkscape-font-specification:'Product Sans';fill:#000080"
         d="m 328.48834,119.23542 q -5.40801,0 -9.08267,-3.12 -3.60534,-3.12 -3.60534,-8.25066 0,-5.54667 4.29867,-8.66667 4.29867,-3.189333 10.608,-3.189333 5.616,0 9.22134,2.08 V 97.11809 q 0,-3.744 -2.56534,-5.962667 -2.56533,-2.288 -6.30933,-2.288 -2.77333,0 -5.06134,1.317334 -2.21866,1.317333 -3.05066,3.605333 l -5.824,-2.496 q 1.17866,-3.050667 4.64533,-5.616 3.46667,-2.634667 9.152,-2.634667 6.51734,0 10.816,3.813334 4.29867,3.813333 4.29867,10.746667 v 20.522666 h -6.10133 v -4.71467 H 339.651 q -3.81333,5.824 -11.16266,5.824 z m 1.04,-5.824 q 3.952,0 7.14133,-2.912 3.25867,-2.98133 3.25867,-7.00266 -2.704,-2.21867 -8.112,-2.21867 -4.64534,0 -7.00267,2.01067 -2.35734,2.01066 -2.35734,4.71466 0,2.496 2.14934,3.952 2.14933,1.456 4.92267,1.456 z" />
      <path
         inkscape:connector-curvature="0"
         id="path43"
         style="font-style:normal;font-variant:normal;font-weight:normal;font-stretch:normal;font-size:69.33333588px;font-family:'Product Sans';-inkscape-font-specification:'Product Sans';fill:#000080"
         d="m 397.64293,118.12609 h -30.22934 v -6.37867 q 13.58934,-13.658663 17.40267,-17.818663 3.39733,-3.813334 4.576,-5.754667 1.17867,-2.010667 1.17867,-4.922667 0,-2.981333 -2.35734,-5.269333 -2.35733,-2.288001 -6.30933,-2.288001 -3.60533,0 -5.824,2.149334 -2.21867,2.08 -2.84267,4.506667 l -5.824,-2.357334 q 1.17867,-3.744 4.92267,-7.072 3.744,-3.328 9.70667,-3.328 6.58666,0 10.816,4.021333 4.22933,4.021334 4.22933,9.637334 0,6.933334 -7.55733,14.837334 l -13.86667,13.936003 h 21.97867 z" />
      <path
         inkscape:connector-curvature="0"
         id="path45"
         style="font-style:normal;font-variant:normal;font-weight:normal;font-stretch:normal;font-size:69.33333588px;font-family:'Product Sans';-inkscape-font-specification:'Product Sans';fill:#000080"
         d="m 436.57576,112.09409 q -5.26934,7.14133 -13.79734,7.14133 -8.528,0 -13.79733,-7.14133 -5.26934,-7.14133 -5.26934,-17.68 0,-10.608 5.26934,-17.680001 5.26933,-7.141333 13.79733,-7.141333 8.528,0 13.79734,7.141333 5.26933,7.072001 5.26933,17.680001 0,10.53867 -5.26933,17.68 z m -13.79734,1.04 q 5.68533,0 9.08267,-5.33867 3.46666,-5.33866 3.46666,-13.38133 0,-8.112 -3.46666,-13.381334 -3.39734,-5.338667 -9.08267,-5.338667 -5.75467,0 -9.152,5.338667 -3.39733,5.269334 -3.39733,13.381334 0,8.04267 3.39733,13.38133 3.39733,5.33867 9.152,5.33867 z" />
      <path
         inkscape:connector-curvature="0"
         id="path47"
         style="font-style:normal;font-variant:normal;font-weight:normal;font-stretch:normal;font-size:69.33333588px;font-family:'Product Sans';-inkscape-font-specification:'Product Sans';fill:#000080"
         d="m 477.26793,118.12609 h -30.22934 v -6.37867 q 13.58934,-13.658663 17.40267,-17.818663 3.39733,-3.813334 4.576,-5.754667 1.17867,-2.010667 1.17867,-4.922667 0,-2.981333 -2.35734,-5.269333 -2.35733,-2.288001 -6.30933,-2.288001 -3.60533,0 -5.824,2.149334 -2.21867,2.08 -2.84267,4.506667 l -5.824,-2.357334 q 1.17867,-3.744 4.92267,-7.072 3.744,-3.328 9.70667,-3.328 6.58666,0 10.816,4.021333 4.22933,4.021334 4.22933,9.637334 0,6.933334 -7.55733,14.837334 l -13.86667,13.936003 h 21.97867 z" />
      <path
         inkscape:connector-curvature="0"
         id="path49"
         style="font-style:normal;font-variant:normal;font-weight:normal;font-stretch:normal;font-size:69.33333588px;font-family:'Product Sans';-inkscape-font-specification:'Product Sans';fill:#000080"
         d="m 516.20076,112.09409 q -5.26934,7.14133 -13.79734,7.14133 -8.528,0 -13.79733,-7.14133 -5.26934,-7.14133 -5.26934,-17.68 0,-10.608 5.26934,-17.680001 5.26933,-7.141333 13.79733,-7.141333 8.528,0 13.79734,7.141333 5.26933,7.072001 5.26933,17.680001 0,10.53867 -5.26933,17.68 z m -13.79734,1.04 q 5.68533,0 9.08267,-5.33867 3.46666,-5.33866 3.46666,-13.38133 0,-8.112 -3.46666,-13.381334 -3.39734,-5.338667 -9.08267,-5.338667 -5.75467,0 -9.152,5.338667 -3.39733,5.269334 -3.39733,13.381334 0,8.04267 3.39733,13.38133 3.39733,5.33867 9.152,5.33867 z" />
    </g>
  </g>
</svg>
