<?xml version="1.0" encoding="UTF-8" standalone="no"?>
<!-- Generator: Adobe Illustrator 21.0.0, SVG Export Plug-In . SVG Version: 6.00 Build 0)  -->

<svg
   xmlns:dc="http://purl.org/dc/elements/1.1/"
   xmlns:cc="http://creativecommons.org/ns#"
   xmlns:rdf="http://www.w3.org/1999/02/22-rdf-syntax-ns#"
   xmlns:svg="http://www.w3.org/2000/svg"
   xmlns="http://www.w3.org/2000/svg"
   xmlns:sodipodi="http://sodipodi.sourceforge.net/DTD/sodipodi-0.dtd"
   xmlns:inkscape="http://www.inkscape.org/namespaces/inkscape"
   version="1.1"
   x="0px"
   y="0px"
   viewBox="0 0 514.86147 150.00001"
   xml:space="preserve"
   id="svg164"
   sodipodi:docname="gdg-pisa.svg"
   width="514.86145"
   height="150"
   inkscape:version="0.92.3 (2405546, 2018-03-11)"><metadata
   id="metadata170"><rdf:RDF><cc:Work
       rdf:about=""><dc:format>image/svg+xml</dc:format><dc:type
         rdf:resource="http://purl.org/dc/dcmitype/StillImage" /><dc:title></dc:title></cc:Work></rdf:RDF></metadata><defs
   id="defs168" /><sodipodi:namedview
   pagecolor="#ffffff"
   bordercolor="#666666"
   borderopacity="1"
   objecttolerance="10"
   gridtolerance="10"
   guidetolerance="10"
   inkscape:pageopacity="0"
   inkscape:pageshadow="2"
   inkscape:window-width="2790"
   inkscape:window-height="1345"
   id="namedview166"
   showgrid="false"
   fit-margin-top="0"
   fit-margin-left="0"
   fit-margin-right="0"
   fit-margin-bottom="0"
   inkscape:zoom="2.1408237"
   inkscape:cx="128.08485"
   inkscape:cy="154.00388"
   inkscape:window-x="0"
   inkscape:window-y="55"
   inkscape:window-maximized="0"
   inkscape:current-layer="gdg" />
<style
   type="text/css"
   id="style2">
	.st0{fill:#A7A9AC;}
	.st1{fill:#FFFFFF;stroke:#000000;stroke-miterlimit:10;}
	.st2{fill:#EA4435;}
	.st3{fill:#557BB7;}
	.st4{fill:#F6BD45;}
	.st5{fill:#0B9D57;}
	.st6{fill:#58595B;stroke:#58595B;stroke-width:3;stroke-miterlimit:10;}
	.st7{font-family:'ProductSans-Regular';}
	.st8{font-size:80px;}
	.st9{fill:#58595B;stroke:#58595B;stroke-miterlimit:10;}
	.st10{fill:#58595B;}
	.st11{fill:#58595B;stroke:#58595B;stroke-width:2;stroke-miterlimit:10;}
</style>
<g
   id="grafica_dietro"
   transform="translate(-42.567157,-55.364001)">
	<g
   id="paesaggio_cipressi3">
		<g
   id="g10">
			<path
   class="st0"
   d="m 90.1,178.1 h -1.3 v -7.2 c 0,0 -7.6,3.6 0,-37.2 0,0 8.8,36 1.2,37.3 z"
   id="path4"
   inkscape:connector-curvature="0"
   style="fill:#a7a9ac" />
			<g
   id="g8">
				<path
   class="st0"
   d="m 90.1,175.6 c -0.4,0 -0.9,0 -1.3,0 0,0.8 0,1.7 0,2.5 0,-2.4 0,-4.8 0,-7.2 0,-0.2 -0.2,-2.4 0,-2.5 -1.2,0.5 -2,-1 -2.4,-1.8 -0.9,-1.9 -0.9,-4.5 -0.9,-6.2 0.1,-6.5 1.3,-13.1 2.4,-19.5 0.2,-0.9 0.1,-5.3 1,-4.1 0.5,0.7 0.5,2.3 0.7,3.1 0.8,3.5 1.5,7.1 2,10.6 0.4,2.3 0.7,4.5 1,6.8 0.1,1.2 0.2,2.5 0.3,3.7 0.1,0.8 -0.2,3.5 0.1,0.4 -0.2,2.3 -0.2,6.3 -3.1,7.1 -0.2,0.1 0,4.2 0,4.7 0,2.3 0.1,4.7 0.1,7 0,0.9 0,-0.8 0,-0.9 0,-1.1 0,-2.3 0,-3.4 0,-2.3 -0.1,-4.7 -0.1,-7 0,1.6 0,3.1 0,4.7 4.5,-1.2 3.2,-10.9 3.1,-14.3 -0.2,-7.9 -1.6,-15.7 -3.3,-23.4 -0.5,-2.5 -0.6,-7 -1.6,-1.8 -1.1,6.4 -2.2,12.9 -2.6,19.4 -0.4,5.2 -1,11.4 0.3,16.6 0.3,1 1.1,4.1 2.9,3.3 0,-0.8 0,-1.7 0,-2.5 0,2.4 0,4.8 0,7.2 0,0.1 0,2.5 0,2.5 0.4,0 0.9,0 1.3,0 0.1,0 0.1,-5 0.1,-5 z"
   id="path6"
   inkscape:connector-curvature="0"
   style="fill:#a7a9ac" />
			</g>
		</g>
	</g>
	<g
   id="paesaggio_cipressi2">
		<g
   id="g19">
			<path
   class="st0"
   d="m 78.2,177.9 h -1.6 v -8.6 c 0,0 -9.1,4.3 0,-44.6 0,0 10.6,43.2 1.4,44.8 z"
   id="path13"
   inkscape:connector-curvature="0"
   style="fill:#a7a9ac" />
			<g
   id="g17">
				<path
   class="st0"
   d="m 78.2,175.4 c -0.5,0 -1.1,0 -1.6,0 0,0.8 0,1.7 0,2.5 0,-2.9 0,-5.7 0,-8.6 0,-0.2 -0.2,-2.4 0,-2.5 -4.3,1.9 -3.9,-10.8 -3.9,-11.8 0.4,-6 1.2,-11.9 2.1,-17.9 0.1,-0.8 2.1,-9.7 1.7,-9.9 0.2,0.1 0.3,1.3 0.3,1.5 2,6 2.8,13 3.7,19.3 0.3,2.3 0.6,4.6 0.8,6.9 0.1,1.4 0.3,2.7 0.3,4.1 0,-1.3 -0.1,1.5 -0.2,2 -0.3,2.3 -0.9,5.4 -3.5,6 -0.2,0.1 0,4.2 0,4.7 0.1,2.8 0.1,5.6 0.2,8.4 0,0.9 0,-0.8 0,-0.9 0,-1.1 0,-2.3 0,-3.4 -0.1,-2.8 -0.1,-5.6 -0.2,-8.4 0,1.6 0,3.1 0,4.7 5.3,-1.3 3.8,-12.8 3.7,-16.8 -0.3,-9.4 -2,-18.9 -4,-28.1 -0.3,-1.2 -0.4,-2.6 -0.8,-3.7 -1,-2.5 -0.7,1.2 -1,2.7 -1.4,7.6 -2.5,15.3 -3.1,23 -0.4,6 -1.1,13.3 0.5,19.2 0.3,1.2 1.4,4.4 3.3,3.6 0,-0.8 0,-1.7 0,-2.5 0,2.9 0,5.7 0,8.6 0,0.1 0,2.5 0,2.5 0.5,0 1.1,0 1.6,0 0.1,-0.2 0.1,-5.2 0.1,-5.2 z"
   id="path15"
   inkscape:connector-curvature="0"
   style="fill:#a7a9ac" />
			</g>
		</g>
	</g>
	<g
   id="paesaggio_cipressi1">
		<g
   id="g28">
			<path
   class="st0"
   d="m 64.4,180.1 -1.5,1 v -8 c 0,0 -8.5,3 0,-42.4 0,0 9.8,40.1 1.3,41.6 z"
   id="path22"
   inkscape:connector-curvature="0"
   style="fill:#a7a9ac" />
			<g
   id="g26">
				<path
   class="st0"
   d="m 64.4,177.6 c -0.5,0.3 -1,0.7 -1.5,1 0,0.8 0,1.7 0,2.5 0,-2.7 0,-5.3 0,-8 0,-0.2 -0.1,-2.5 0,-2.5 -6.8,2.2 -1.3,-30 -1.1,-30.9 0.1,-0.8 1.5,-6.1 1.1,-6.4 0.1,0.1 0,0.4 0.1,0.5 0.4,0.4 0.5,2.4 0.7,2.9 0.9,4 1.7,8 2.3,12 0.4,2.3 0.7,4.6 1,6.9 0.2,1.3 0.3,2.6 0.4,3.9 0,0 0.1,4.8 0.2,3 -0.1,2.5 -0.4,6.7 -3.4,7.4 -0.2,0.1 0,4.2 0,4.7 0.1,2.6 0.1,5.2 0.2,7.8 0,0.9 0,-0.8 0,-0.9 0,-1.1 0,-2.3 0,-3.4 -0.1,-2.6 -0.1,-5.2 -0.2,-7.8 0,1.6 0,3.1 0,4.7 4.9,-1.3 3.5,-11.9 3.4,-15.6 -0.2,-8.9 -1.9,-17.7 -3.7,-26.4 -0.7,-3.4 -0.7,-6.8 -1.7,-0.8 -1.3,7.1 -2.4,14.3 -2.9,21.5 -0.4,5.8 -1,12.5 0.4,18.2 0.3,1.1 1.2,4.6 3.1,4 0,-0.8 0,-1.7 0,-2.5 0,2.7 0,5.3 0,8 0,0.2 0.2,2.4 0,2.5 0.5,-0.3 1,-0.7 1.5,-1 0.9,-0.8 -0.6,-4.8 0.1,-5.3 z"
   id="path24"
   inkscape:connector-curvature="0"
   style="fill:#a7a9ac" />
			</g>
		</g>
	</g>
	<g
   id="torre_vet">
		<path
   class="st0"
   d="m 386.7,170.4 43.9,-3.4 c 0,0 0.9,-6.2 -1.6,-6.6 l 0.5,-7.6 c 0,0 3.5,-1.2 0.8,-4.4 0,0 3.1,-2.8 -0.4,-5.3 l 0.9,-6.4 c 0,0 2.8,-1.8 0.2,-3.8 l 1,-5.6 c 0,0 3.8,-2.2 0.8,-4.6 l 0.8,-6 c 0,0 2.3,-1.8 -0.1,-3.6 l 0.3,-5.8 c 0,0 3.1,-2.3 0.6,-4.1 l 0.4,-6.6 c 0,0 4.4,-1.7 1.1,-3.6 l -0.2,-7.1 c 0,0 2.9,-1 1.4,-3.4 l -4.3,-1.7 c 0,0 0.3,-7.8 1.1,-8.6 2,-1.9 1.5,-6.1 1.5,-6.1 L 409,62.6 c 0,0 -1.7,5.8 0,6.9 l -0.7,8.3 -5.8,1.3 c 0,0 -1.3,1.8 0.8,2.7 l -0.5,7.4 c 0,0 -2.6,1.6 -0.5,3.6 l -1,6.6 c 0,0 -3.3,0.8 -1.4,3.4 l -0.1,6.4 c 0,0 -4.1,1.6 -1.1,4.2 l -0.7,5.8 c 0,0 -2.6,1.3 -0.5,3.4 l -0.3,5.9 c 0,0 -3.2,1.1 -0.9,3.5 l -0.9,7.5 c 0,0 -3.1,1.1 -1.5,4.7 0,0 -2.5,1.9 -0.7,4.1 l -1.5,9.2 c -4.8,5.2 -5,12.9 -5,12.9 z"
   id="path31"
   inkscape:connector-curvature="0"
   style="fill:#a7a9ac" />
		<path
   class="st1"
   d="M 407.6,-73.8"
   id="path33"
   inkscape:connector-curvature="0"
   style="fill:#ffffff;stroke:#000000;stroke-miterlimit:10" />
	</g>
	<g
   id="curve_nuove">
		<g
   id="g40">
			<g
   id="g38">
				<path
   class="st0"
   d="m 264.5,205.1 c 32.5,-18.5 71.8,-24.2 108.2,-29.6 25.4,-3.8 50.6,-7.3 76.3,-6.7 22.8,0.5 45.5,2.9 68.1,6.2 9,1.3 17.9,2.7 26.8,4.4 2.6,0.5 5.3,1 7.9,1.6 0.7,0.1 1.6,0.5 2.3,0.5 1.3,-0.1 0.7,1.1 -0.1,-0.6 0.4,-0.9 0.7,-1.8 1.1,-2.8 0.5,0 0.6,-0.1 0.3,-0.1 -2.4,-0.2 -2.4,3.6 0,3.8 0.2,0 0.4,0 0.7,-0.1 1.3,-0.3 1.6,-1.7 1.1,-2.8 -0.8,-1.8 -6.4,-2.1 -7.8,-2.4 -7.1,-1.4 -14.2,-2.6 -21.4,-3.8 -21.7,-3.5 -43.6,-6.1 -65.6,-7.3 -12,-0.7 -24.1,-0.9 -36.1,-0.3 -13.5,0.7 -26.9,2.7 -40.2,4.6 -24.5,3.4 -49.1,7.1 -73.2,13.1 -17.4,4.3 -34.6,10 -50.3,18.9 -2,1.4 -0.2,4.6 1.9,3.4 z"
   id="path36"
   inkscape:connector-curvature="0"
   style="fill:#a7a9ac" />
			</g>
		</g>
		<g
   id="g46">
			<g
   id="g44">
				<path
   class="st0"
   d="m 44.9,187.9 c 27.8,-7.8 58.6,-7.6 87.2,-7.3 34.1,0.4 68.5,2.5 102.1,8.4 13.2,2.3 26.9,4.9 39.1,10.6 2.2,1 4.1,-2.2 1.9,-3.2 -10.6,-5 -22.3,-7.6 -33.8,-9.8 -15.9,-3.1 -32,-5.1 -48.1,-6.6 -35,-3.2 -70.4,-4.3 -105.5,-2 -14.7,1 -29.7,2.3 -43.9,6.3 -2.3,0.7 -1.4,4.3 1,3.6 z"
   id="path42"
   inkscape:connector-curvature="0"
   style="fill:#a7a9ac" />
			</g>
		</g>
	</g>
</g>
<g
   id="google"
   transform="translate(-42.567157,-55.364001)">
	<g
   id="g68">
		<g
   id="g66">
			<g
   id="g52">
				<path
   class="st2"
   d="m 123.2,123.9 18.3,-10.6 c 4.3,-2.5 5.8,-8 3.3,-12.3 -2.5,-4.3 -8,-5.8 -12.3,-3.3 L 100.9,116 Z"
   id="path50"
   inkscape:connector-curvature="0"
   style="fill:#ea4435" />
			</g>
			<g
   id="g56">
				<path
   class="st3"
   d="m 137.1,151.2 c 3.1,0 6.2,-1.6 7.8,-4.5 2.5,-4.3 1,-9.8 -3.3,-12.3 L 109.9,116 c -4.3,-2.5 -8.8,-1 -11.3,3.3 -2.5,4.3 -2,9.8 2.3,12.3 l 31.7,18.3 c 1.4,0.9 2.9,1.3 4.5,1.3 z"
   id="path54"
   inkscape:connector-curvature="0"
   style="fill:#557bb7" />
			</g>
			<g
   id="g60">
				<path
   class="st4"
   d="m 168.6,151.2 c 1.5,0 3.1,-0.4 4.5,-1.2 l 32.7,-18.3 -23.1,-8.1 -18.6,10.8 c -4.3,2.5 -5.8,8 -3.3,12.3 1.6,2.8 4.7,4.5 7.8,4.5 z"
   id="path58"
   inkscape:connector-curvature="0"
   style="fill:#f6bd45" />
			</g>
			<g
   id="g64">
				<path
   class="st5"
   d="m 200.3,132.9 c 3.1,0 7.2,-1.6 8.8,-4.5 2.5,-4.3 1,-9.8 -3.3,-12.3 L 173.1,97.8 c -4.3,-2.5 -9.8,-1 -12.3,3.3 -2.5,4.3 -1,9.8 3.3,12.3 l 31.7,18.3 c 1.4,0.8 2.9,1.2 4.5,1.2 z"
   id="path62"
   inkscape:connector-curvature="0"
   style="fill:#0b9d57" />
			</g>
		</g>
	</g>
</g>
<g
   id="gdg"
   transform="translate(-42.567157,-55.364001)">
	<g
   aria-label="GDG "
   transform="translate(223.2835,150.2772)"
   style=""
   id="text75"><path
     d="m 60.88,-26.32 q 0,12 -7.12,19.12 -8.08,8.48 -21.04,8.48 -12.4,0 -21.12,-8.56 -8.64,-8.64 -8.64,-21.36 0,-12.72 8.64,-21.28 8.72,-8.64 21.12,-8.64 6.16,0 11.76,2.4 5.6,2.4 8.96,6.4 l -5.04,5.04 q -5.68,-6.8 -15.68,-6.8 -9.04,0 -15.68,6.4 -6.56,6.32 -6.56,16.48 0,10.16 6.56,16.56 6.64,6.32 15.68,6.32 9.6,0 16,-6.4 4.16,-4.16 4.8,-11.6 h -20.8 v -6.88 h 27.76 q 0.4,2.24 0.4,4.32 z"
     style="font-style:normal;font-variant:normal;font-weight:normal;font-stretch:normal;font-size:80px;font-family:'Product Sans';-inkscape-font-specification:'Product Sans';fill:#58595b;stroke:#58595b;stroke-width:3;stroke-miterlimit:10"
     id="path174" /><path
     d="m 69.8225,0 v -57.28 h 17.52 q 13.2,0 21.12,8 7.92,7.92 7.92,20.64 0,12.72 -7.92,20.72 -7.92,7.92 -21.12,7.92 z m 7.36,-7.04 h 10.16 q 9.92,0 15.68,-5.68 5.84,-5.68 5.84,-15.92 0,-10.16 -5.84,-15.84 -5.76,-5.76 -15.68,-5.76 h -10.16 z"
     style="font-style:normal;font-variant:normal;font-weight:normal;font-stretch:normal;font-size:80px;font-family:'Product Sans';-inkscape-font-specification:'Product Sans';fill:#58595b;stroke:#58595b;stroke-width:3;stroke-miterlimit:10"
     id="path176" /><path
     d="m 180.255,-26.32 q 0,12 -7.12,19.12 -8.08,8.48 -21.04,8.48 -12.4,0 -21.12,-8.56 -8.64,-8.64 -8.64,-21.36 0,-12.72 8.64,-21.28 8.72,-8.64 21.12,-8.64 6.16,0 11.76,2.4 5.6,2.4 8.96,6.4 l -5.04,5.04 q -5.68,-6.8 -15.68,-6.8 -9.04,0 -15.68,6.4 -6.56,6.32 -6.56,16.48 0,10.16 6.56,16.56 6.64,6.32 15.68,6.32 9.6,0 16,-6.4 4.16,-4.16 4.8,-11.6 h -20.8 v -6.88 h 27.76 q 0.4,2.24 0.4,4.32 z"
     style="font-style:normal;font-variant:normal;font-weight:normal;font-stretch:normal;font-size:80px;font-family:'Product Sans';-inkscape-font-specification:'Product Sans';fill:#58595b;stroke:#58595b;stroke-width:3;stroke-miterlimit:10"
     id="path178" /></g>
	<g
   aria-label="Pisa"
   transform="matrix(0.99,0,0,1,415.5348,151.1634)"
   style="font-size:80px;font-family:ProductSans-Regular;fill:#58595b"
   id="text77"><path
     d="M 13.12,0 H 5.76 v -57.28 h 19.52 q 7.28,0 12.56,4.88 5.36,4.8 5.36,12.16 0,7.36 -5.36,12.24 -5.28,4.8 -12.56,4.8 H 13.12 Z m 0,-30.24 h 12.32 q 4.64,0 7.44,-3.12 2.8,-3.12 2.8,-6.88 0,-3.76 -2.8,-6.88 -2.8,-3.12 -7.44,-3.12 H 13.12 Z"
     style="font-style:normal;font-variant:normal;font-weight:normal;font-stretch:normal;font-family:'Product Sans';-inkscape-font-specification:'Product Sans'"
     id="path181" /><path
     d="m 57.63625,-49.04 q -1.52,1.52 -3.68,1.52 -2.16,0 -3.68,-1.52 -1.52,-1.52 -1.52,-3.68 0,-2.16 1.52,-3.68 1.52,-1.52 3.68,-1.52 2.16,0 3.68,1.52 1.52,1.52 1.52,3.68 0,2.16 -1.52,3.68 z m 0,49.04 h -7.36 v -39.2 h 7.36 z"
     style="font-style:normal;font-variant:normal;font-weight:normal;font-stretch:normal;font-family:'Product Sans';-inkscape-font-specification:'Product Sans'"
     id="path183" /><path
     d="m 81.8525,1.28 q -6.56,0 -10.88,-3.2 -4.24,-3.2 -6.24,-8 l 6.56,-2.72 q 3.12,7.36 10.64,7.36 3.44,0 5.6,-1.52 2.24,-1.52 2.24,-4 0,-3.84 -5.36,-5.2 l -7.92,-1.92 q -3.76,-0.96 -7.12,-3.6 -3.36,-2.72 -3.36,-7.28 0,-5.2 4.56,-8.4 4.64,-3.28 10.96,-3.28 5.2,0 9.28,2.4 4.08,2.32 5.84,6.72 l -6.4,2.64 q -2.16,-5.2 -8.96,-5.2 -3.28,0 -5.52,1.36 -2.24,1.36 -2.24,3.68 0,3.36 5.2,4.56 l 7.76,1.84 q 5.52,1.28 8.16,4.4 2.64,3.12 2.64,7.04 0,5.28 -4.32,8.8 -4.32,3.52 -11.12,3.52 z"
     style="font-style:normal;font-variant:normal;font-weight:normal;font-stretch:normal;font-family:'Product Sans';-inkscape-font-specification:'Product Sans'"
     id="path185" /><path
     d="m 116.5675,1.28 q -6.24,0 -10.48,-3.6 -4.16,-3.6 -4.16,-9.52 0,-6.4 4.96,-10 4.96,-3.68 12.24,-3.68 6.48,0 10.64,2.4 v -1.12 q 0,-4.32 -2.96,-6.88 -2.96,-2.64 -7.28,-2.64 -3.2,0 -5.84,1.52 -2.56,1.52 -3.52,4.16 l -6.72,-2.88 q 1.36,-3.52 5.36,-6.48 4,-3.04 10.56,-3.04 7.52,0 12.48,4.4 4.96,4.4 4.96,12.4 V 0 h -7.04 v -5.44 h -0.32 q -4.4,6.72 -12.88,6.72 z m 1.2,-6.72 q 4.56,0 8.24,-3.36 3.76,-3.44 3.76,-8.08 -3.12,-2.56 -9.36,-2.56 -5.36,0 -8.08,2.32 -2.72,2.32 -2.72,5.44 0,2.88 2.48,4.56 2.48,1.68 5.68,1.68 z"
     style="font-style:normal;font-variant:normal;font-weight:normal;font-stretch:normal;font-family:'Product Sans';-inkscape-font-specification:'Product Sans'"
     id="path187" /></g>
</g>


</svg>